{
  "accessors": [
    {
      "name": "Pelvis_3_positions",
      "componentType": 5126,
      "count": 4495,
      "min": [
        -13.008099555969238,
        158.33799743652344,
        -11.224800109863281
      ],
      "max": [
        13.052499771118164,
        189.31500244140625,
        18.189599990844727
      ],
      "type": "VEC3",
      "bufferView": 0,
      "byteOffset": 0
    },
    {
      "name": "Pelvis_3_normals",
      "componentType": 5126,
      "count": 4495,
      "min": [
        -0.999459981918335,
        -0.9999570250511169,
        -0.9998869895935059
      ],
      "max": [
        0.999459981918335,
        0.9999769926071167,
        0.9999499917030334
      ],
      "type": "VEC3",
      "bufferView": 0,
      "byteOffset": 193092
    },
    {
      "name": "Pelvis_3_texcoords",
      "componentType": 5126,
      "count": 4495,
      "min": [
        0.0024709999561309814,
        0.006357000209391117
      ],
      "max": [
        0.9956759810447693,
        0.9975577592849731
      ],
      "type": "VEC2",
      "bufferView": 1,
      "byteOffset": 0
    },
    {
      "name": "Pelvis_3_0_indices",
      "componentType": 5123,
      "count": 17742,
      "min": [
        0
      ],
      "max": [
        4494
      ],
      "type": "SCALAR",
      "bufferView": 2,
      "byteOffset": 0
    },
    {
      "name": "Pelvis_4_positions",
      "componentType": 5126,
      "count": 9405,
      "min": [
        -48.295101165771484,
        -0.0530163012444973,
        -19.261499404907227
      ],
      "max": [
        48.295101165771484,
        166.7760009765625,
        45.59700012207031
      ],
      "type": "VEC3",
      "bufferView": 0,
      "byteOffset": 53940
    },
    {
      "name": "Pelvis_4_normals",
      "componentType": 5126,
      "count": 9405,
      "min": [
        -1,
        -0.9999809861183167,
        -0.999970018863678
      ],
      "max": [
        1,
        0.9999809861183167,
        0.9998769760131836
      ],
      "type": "VEC3",
      "bufferView": 0,
      "byteOffset": 247032
    },
    {
      "name": "Pelvis_4_texcoords",
      "componentType": 5126,
      "count": 9405,
      "min": [
        0.002566999988630414,
        0.00060299999313429
      ],
      "max": [
        0.9982060194015503,
        0.9977520108222961
      ],
      "type": "VEC2",
      "bufferView": 1,
      "byteOffset": 35960
    },
    {
      "name": "Pelvis_4_0_indices",
      "componentType": 5123,
      "count": 30012,
      "min": [
        0
      ],
      "max": [
        9404
      ],
      "type": "SCALAR",
      "bufferView": 2,
      "byteOffset": 35484
    },
    {
      "name": "Pelvis_5_positions",
      "componentType": 5126,
      "count": 2191,
      "min": [
        -48.68320083618164,
        106.70099639892578,
        13.271200180053711
      ],
      "max": [
        -34.20650100708008,
        139.3679962158203,
        102.41300201416016
      ],
      "type": "VEC3",
      "bufferView": 0,
      "byteOffset": 166800
    },
    {
      "name": "Pelvis_5_normals",
      "componentType": 5126,
      "count": 2191,
      "min": [
        -0.9967889785766602,
        -0.9975799918174744,
        -0.9999989867210388
      ],
      "max": [
        0.9979940056800842,
        0.9995909929275513,
        0.9997760057449341
      ],
      "type": "VEC3",
      "bufferView": 0,
      "byteOffset": 359892
    },
    {
      "name": "Pelvis_5_texcoords",
      "componentType": 5126,
      "count": 2191,
      "min": [
        0,
        1
      ],
      "max": [
        0,
        1
      ],
      "type": "VEC2",
      "bufferView": 1,
      "byteOffset": 111200
    },
    {
      "name": "Pelvis_5_0_indices",
      "componentType": 5123,
      "count": 7644,
      "min": [
        0
      ],
      "max": [
        2190
      ],
      "type": "SCALAR",
      "bufferView": 2,
      "byteOffset": 95508
    }
  ],
  "asset": {
    "generator": "obj2gltf",
    "version": "2.0"
  },
  "buffers": [
    {
      "name": "ArmyPilot",
      "byteLength": 625708,
      "uri": "data:application/octet-stream;base64,"
    }
  ],
  "bufferViews": [
    {
      "name": "bufferView_0",
      "buffer": 0,
      "byteLength": 386184,
      "byteOffset": 0,
      "byteStride": 12,
      "target": 34962
    },
    {
      "name": "bufferView_1",
      "buffer": 0,
      "byteLength": 128728,
      "byteOffset": 386184,
      "byteStride": 8,
      "target": 34962
    },
    {
      "name": "bufferView_2",
      "buffer": 0,
      "byteLength": 110796,
      "byteOffset": 514912,
      "target": 34963
    }
  ],
  "materials": [
    {
      "name": "default",
      "pbrMetallicRoughness": {
        "baseColorFactor": [
          0.5,
          0.5,
          0.5,
          1
        ],
        "metallicFactor": 0,
        "roughnessFactor": 1
      },
      "emissiveFactor": [
        0,
        0,
        0
      ],
      "alphaMode": "OPAQUE",
      "doubleSided": false
    }
  ],
  "meshes": [
    {
      "name": "Pelvis_3",
      "primitives": [
        {
          "attributes": {
            "POSITION": 0,
            "NORMAL": 1,
            "TEXCOORD_0": 2
          },
          "indices": 3,
          "material": 0,
          "mode": 4
        }
      ]
    },
    {
      "name": "Pelvis_4",
      "primitives": [
        {
          "attributes": {
            "POSITION": 4,
            "NORMAL": 5,
            "TEXCOORD_0": 6
          },
          "indices": 7,
          "material": 0,
          "mode": 4
        }
      ]
    },
    {
      "name": "Pelvis_5",
      "primitives": [
        {
          "attributes": {
            "POSITION": 8,
            "NORMAL": 9,
            "TEXCOORD_0": 10
          },
          "indices": 11,
          "material": 0,
          "mode": 4
        }
      ]
    }
  ],
  "nodes": [
    {
      "name": "Pelvis",
      "mesh": 0
    },
    {
      "name": "Pelvis_1",
      "mesh": 1
    },
    {
      "name": "Pelvis_2",
      "mesh": 2
    }
  ],
  "scene": 0,
  "scenes": [
    {
      "nodes": [
        0,
        1,
        2
      ]
    }
  ]
}
