<svg width="56" height="36" viewBox="0 0 56 36" version="1.1" xmlns="http://www.w3.org/2000/svg" xmlns:xlink="http://www.w3.org/1999/xlink">
<title>guild logo</title>
<desc>Created using Figma</desc>
<g id="Canvas" transform="translate(-5326 465)">
<g id="guild logo">
<g id="Canvas">
<g id="guild">
<g id="guild.324878e6">
<g id="Vector">
<g id="Vector">
<use xlink:href="#path0_fill" transform="matrix(2 0 0 2 5326 -460.726)" fill="#FFFFFF" fill-opacity="0.54"/>
</g>
</g>
<g id="Vector">
<g id="Vector">
<use xlink:href="#path1_fill" transform="matrix(2 0 0 2 5344.09 -462.987)" fill="#FFFFFF" fill-opacity="0.54"/>
</g>
</g>
<g id="Vector">
<g id="Vector">
<use xlink:href="#path2_fill" transform="matrix(2 0 0 2 5370.27 -451.864)" fill="#FFFFFF" fill-opacity="0.54"/>
</g>
</g>
<g id="Vector">
<g id="Vector">
<use xlink:href="#path3_fill" transform="matrix(2 0 0 2 5357.66 -465)" fill="#FFFFFF" fill-opacity="0.54"/>
</g>
</g>
<g id="Vector">
<g id="Vector">
<use xlink:href="#path4_fill" transform="matrix(2 0 0 2 5343.31 -445.974)" fill="#FFFFFF" fill-opacity="0.54"/>
</g>
</g>
<g id="Vector">
<g id="Vector">
<use xlink:href="#path5_fill" transform="matrix(2 0 0 2 5361.16 -448.727)" fill="#FFFFFF" fill-opacity="0.54"/>
</g>
</g>
<g id="Vector">
<g id="Vector">
<use xlink:href="#path6_fill" transform="matrix(2 0 0 2 5354.68 -447.373)" fill="#FFFFFF" fill-opacity="0.54"/>
</g>
</g>
</g>
</g>
</g>
</g>
</g>
<defs>
<path id="path0_fill" d="M 5.62747 5.57498C 5.7242 5.00368 5.76581 4.42426 5.75173 3.84485C 5.58686 3.8846 5.42845 3.92139 5.27062 3.95996C 4.88141 4.05608 4.49101 4.14982 4.08883 4.16347C 3.92572 4.16881 3.81208 4.09761 3.84564 3.91249C 3.96146 3.26902 4.1351 2.63748 4.36441 2.02569C 4.44771 1.79885 4.6157 1.61382 4.83254 1.51008C 5.52917 1.15408 6.30818 0.97608 7.05131 0.744088L 8.69003 0.233821C 8.98799 0.141261 9.69108 -0.263986 9.75465 0.272388C 9.83121 0.948196 9.56388 1.72131 9.36192 2.35677C 9.29477 2.56681 9.21528 2.78516 9.04925 2.92874C 8.88317 3.07233 8.65058 3.11683 8.46038 3.23371C 8.21544 3.38561 8.25605 3.54403 8.22484 3.80866C 8.14183 4.54617 8.07647 5.3169 7.94459 6.05918C 7.81913 6.76404 7.67076 7.67425 7.19085 8.23076C 7.11861 8.31393 7.03749 8.38874 6.94885 8.45385C 6.79454 8.56778 6.63556 8.67753 6.47189 8.77785C 6.15487 8.97347 5.77479 9.03731 5.41195 8.95584C 5.16641 8.9066 5.02863 8.70897 5.06278 8.45269C 5.08221 8.30377 5.11519 8.15601 5.14345 8.00116C 4.97576 7.98586 4.8067 8.00174 4.6447 8.04801C 4.14023 8.17999 3.70307 8.49753 3.41932 8.93805C 3.19206 9.28338 3.02535 9.66551 2.92645 10.0678C 2.82019 10.5201 2.79842 10.9886 2.86227 11.449C 2.88937 11.724 2.939 11.9963 3.01066 12.2631C 3.16965 12.8018 3.54062 13.1465 4.07058 13.3014C 4.21808 13.3371 4.36843 13.3595 4.51987 13.3685C 4.68356 13.3851 4.81782 13.3091 4.93206 13.2017C 5.14581 13.0024 5.34423 12.79 5.48146 12.5247C 5.49675 12.495 5.5103 12.4654 5.53326 12.4156C 5.40139 12.4339 5.28596 12.4529 5.17054 12.4654C 5.05046 12.4816 4.92953 12.4905 4.8084 12.4921C 4.54695 12.4885 4.3915 12.3467 4.38148 12.0845C 4.37858 11.9086 4.3898 11.7328 4.41505 11.5588C 4.44744 11.2935 4.49219 11.0301 4.53282 10.7661C 4.54691 10.6568 4.58755 10.5527 4.65113 10.4631C 4.71472 10.3735 4.79928 10.3011 4.89731 10.2523C 4.98776 10.1997 5.08159 10.1533 5.17819 10.1134C 5.6799 9.92709 6.14741 9.66662 6.63261 9.44591C 7.1308 9.21985 7.64543 9.03059 8.15539 8.83121C 8.23856 8.80517 8.32572 8.79432 8.41273 8.79919C 8.52574 8.79919 8.59877 8.87219 8.64826 8.9677C 8.70974 9.09401 8.73264 9.23584 8.7142 9.37529C 8.66928 9.93402 8.55049 10.4841 8.36087 11.0111C 8.2973 11.1826 8.10064 11.3173 8.0005 11.4709C 7.91365 11.5999 7.85764 11.7473 7.83683 11.9017C 7.76559 12.4428 7.68021 12.9816 7.61779 13.5239C 7.57539 13.8918 7.55417 14.2507 7.32336 14.5326C 7.17283 14.6983 7.00833 14.8506 6.83169 14.9876C 6.54908 15.2332 6.23147 15.4347 5.88954 15.5851C 5.65411 15.6945 5.38762 15.7156 5.13815 15.6445C 4.98034 15.5976 4.89319 15.5039 4.89025 15.3354C 4.88697 15.2979 4.88146 15.2606 4.87376 15.2238L 4.64176 15.3425C 4.40622 15.4612 4.16656 15.5798 3.9322 15.7056C 3.73947 15.8021 3.52791 15.8544 3.31274 15.8587C 2.46304 15.9008 1.73346 15.6178 1.07513 15.0737C 0.585807 14.6678 0.332014 14.1392 0.163605 13.553C 0.0274645 13.0498 -0.0242809 12.5272 0.0105059 12.0068C 0.0387513 11.3873 0.107798 10.7705 0.21719 10.1603C 0.345489 9.47508 0.6077 8.82243 0.988574 8.24029C 1.25953 7.82698 1.58433 7.45216 1.95428 7.12599C 2.17038 6.9308 2.37589 6.72073 2.60848 6.54751C 3.23471 6.09047 3.95535 5.78193 4.71654 5.64503C 4.85704 5.61437 4.99919 5.59198 5.14227 5.578C 5.29831 5.56609 5.45614 5.57498 5.62747 5.57498Z"/>
<path id="path1_fill" d="M 3.96704 5.2008C 3.81791 5.16414 3.66061 5.18403 3.52509 5.25668C 3.38957 5.32934 3.28531 5.44967 3.23216 5.59478C 3.14678 5.85287 3.08318 6.11869 3.00958 6.38096C 2.91889 6.7031 2.84175 7.03006 2.73105 7.34453C 2.63263 7.60849 2.44967 7.8319 2.2111 7.9794C 1.88058 8.20858 1.52243 8.3944 1.1453 8.53236C 0.894948 8.61426 0.632988 8.65434 0.369793 8.65106C 0.134256 8.65106 0.00294421 8.52643 1.318e-16 8.28968C 0.00282071 8.17639 0.0210482 8.064 0.0541736 7.95563C 0.171942 7.52252 0.308553 7.0947 0.407479 6.65805C 0.489917 6.29016 0.525248 5.911 0.584131 5.5384C 0.690714 4.92253 0.807894 4.30902 0.914472 3.69314C 0.973359 3.33714 1.02871 2.98114 1.07641 2.62514C 1.09979 2.42562 1.16315 2.23297 1.26265 2.05887C 1.36215 1.88477 1.49571 1.73284 1.65524 1.61232C 2.12631 1.2403 2.61152 0.897352 3.16385 0.65824C 3.20272 0.641627 3.24217 0.625607 3.28162 0.611959C 3.50774 0.535422 3.68321 0.624421 3.75269 0.85582C 3.80411 1.03723 3.81259 1.22825 3.77743 1.41356C 3.71854 1.79803 3.65082 2.18192 3.59312 2.5664C 3.5731 2.69812 3.57428 2.83281 3.56191 2.96572C 3.55543 3.03513 3.589 3.06124 3.64965 3.05709C 3.72536 3.05579 3.80074 3.04664 3.87459 3.0298C 4.02651 2.98707 4.17607 2.93546 4.32446 2.88146C 4.33862 2.87464 4.35119 2.86487 4.36134 2.8528C 4.37149 2.84073 4.37899 2.82664 4.38334 2.81145C 4.49758 2.36289 4.60475 1.91255 4.72429 1.46577C 4.76472 1.3239 4.81978 1.18668 4.88858 1.05637C 5.00185 0.83017 5.19545 0.655211 5.43092 0.566276C 5.84309 0.401921 6.25879 0.233415 6.67276 0.0678744C 6.73034 0.0451193 6.78934 0.026288 6.84945 0.0115075C 7.00313 -0.0264658 7.11262 0.029901 7.17977 0.175267C 7.25574 0.341401 7.24397 0.517621 7.21628 0.687315C 7.11772 1.29291 7.0129 1.89732 6.90183 2.50054C 6.76523 3.2523 6.63214 4.00524 6.47725 4.75521C 6.35951 5.32775 6.21466 5.89501 6.07154 6.46222C 5.99383 6.76959 5.85134 7.05023 5.56868 7.21514C 5.10115 7.48927 4.60534 7.68981 4.05595 7.71596C 3.68557 7.73253 3.5466 7.60145 3.59077 7.22938C 3.63787 6.83545 3.72385 6.4456 3.79745 6.05521C 3.8475 5.78998 3.90639 5.52713 3.96056 5.26251C 3.96432 5.24215 3.96649 5.22151 3.96704 5.2008Z"/>
<path id="path2_fill" d="M 0.00117883 6.9506C 0.00117883 6.4943 0.0759608 6.04573 0.13249 5.59542C 0.180186 5.2127 0.213162 4.82763 0.240249 4.44315C 0.27028 4.01476 0.295598 3.58578 0.306787 3.15621C 0.318564 2.69578 0.306789 2.23476 0.312088 1.77374C 0.312088 1.46877 0.403946 1.19583 0.63065 0.984016C 0.699961 0.921313 0.778409 0.869685 0.863245 0.830932C 1.28191 0.634538 1.69233 0.410853 2.1269 0.25896C 2.63712 0.082009 3.17368 -0.00548954 3.71324 0.000266583C 4.05082 -0.000464375 4.3831 0.0848281 4.67919 0.248212C 4.97528 0.411597 5.22555 0.647768 5.40675 0.934765C 5.82308 1.58744 5.84604 2.37894 5.86369 3.1301C 5.88134 3.89609 5.70707 4.61047 5.2878 5.26076C 4.72214 6.13663 3.86678 6.78219 2.87356 7.0829C 2.0427 7.33505 1.17121 7.41812 0.311498 7.49171C 0.231548 7.49255 0.154391 7.46211 0.0962838 7.40674C 0.0381767 7.35141 0.00365757 7.2755 1.36148e-14 7.19503C 0.00058884 7.11609 0.00117883 7.03303 0.00117883 6.9506ZM 2.57148 4.59326C 2.60985 4.58768 2.64781 4.57955 2.68512 4.56893C 3.00194 4.44062 3.26843 4.21143 3.44395 3.91631C 3.61947 3.62119 3.6944 3.27632 3.6573 2.9343C 3.5943 2.42107 3.27456 2.30537 2.81644 2.44124C 2.5809 2.51125 2.6598 2.98296 2.65038 3.18054C 2.62624 3.64986 2.60799 4.12216 2.57148 4.59385L 2.57148 4.59326Z"/>
<path id="path3_fill" d="M 5.62101 0.00114281C 5.67165 0.00114281 5.72173 0.00588943 5.77353 0.00944944C 6.01732 0.0266561 6.08977 0.343496 6.08446 0.589729C 6.07501 1.0644 6.08446 0.955815 6.03555 1.31182C 6.02672 1.3753 5.98905 1.59365 5.94786 1.6423C 5.7429 1.88439 5.3902 1.94312 5.1052 2.03509C 4.71538 2.16028 4.32557 2.27658 3.92751 2.36558C 3.55889 2.44746 3.24975 2.57621 3.17203 2.98917C 3.15789 3.06393 3.12668 3.13573 3.11314 3.20989C 3.10195 3.26151 3.11962 3.28703 3.18321 3.27516C 3.80798 3.15649 4.41566 2.97849 5.02394 2.79278C 5.14841 2.75664 5.27629 2.73377 5.40549 2.72455C 5.57393 2.7109 5.66104 2.77973 5.67286 2.94764C 5.68584 3.08671 5.67633 3.22699 5.6446 3.36297C 5.58349 3.58484 5.50915 3.8028 5.42198 4.01564C 5.36451 4.15151 5.25832 4.2606 5.12463 4.3212C 4.67063 4.56744 4.18954 4.67008 3.69492 4.81664C 3.49648 4.87597 3.17438 4.98159 3.01304 5.10737C 2.89527 5.19875 2.75866 5.47403 2.80871 5.62417C 2.81954 5.64174 2.8345 5.65636 2.85227 5.66668C 2.87004 5.67705 2.89007 5.68283 2.91058 5.68351C 3.0254 5.67282 3.13788 5.64317 3.25211 5.62417C 3.86627 5.53396 4.45217 5.32039 5.05868 5.18332C 5.14468 5.15818 5.23499 5.1517 5.32368 5.16433C 5.57861 5.21773 5.51093 5.49658 5.50032 5.69061C 5.49402 5.9524 5.45141 6.21207 5.3737 6.46196C 5.24063 6.85234 4.97035 7.09979 4.5982 7.25522C 4.18601 7.42733 3.75263 7.52104 3.31865 7.6059C 2.635 7.74 1.949 7.85927 1.26358 7.98268C 1.06691 8.01826 0.869649 8.05685 0.670622 8.07406C 0.535861 8.08353 0.400448 8.07517 0.267853 8.04912C 0.0688237 8.01233 -0.0265688 7.86102 0.00640644 7.6599C 0.10651 7.02323 0.210735 6.38662 0.304361 5.74879C 0.349113 5.4456 0.372666 5.13882 0.408586 4.83444C 0.457975 4.40309 0.531106 3.97483 0.627633 3.55165C 0.725384 3.13157 0.80959 2.70793 0.903805 2.28666C 0.929902 2.18784 0.960953 2.0904 0.996838 1.99474C 1.07457 1.76156 1.23238 1.59069 1.40138 1.41743C 1.73584 1.07864 2.16687 0.924961 2.58731 0.764762C 2.99949 0.609905 3.42994 0.495389 3.85391 0.368416C 4.16481 0.275263 4.47455 0.176769 4.79076 0.10735C 5.01832 0.0611726 5.24807 0.0267146 5.4791 0.00410943C 5.52628 -7.34849e-05 5.57372 -0.00106455 5.62101 0.00114281Z"/>
<path id="path4_fill" d="M 0.00453949 5.19244C 0.036263 4.39073 0.154733 3.59491 0.357845 2.8191C 0.429095 2.53549 0.489746 2.24891 0.561586 1.9653C 0.616937 1.74517 0.668757 1.45088 0.785932 1.2533C 0.855416 1.13463 0.903701 1.0753 1.02559 1.02546C 1.51669 0.824913 2.09022 0.706839 2.61017 0.606564C 2.81508 0.566811 2.9517 0.687257 2.92932 0.898485C 2.90459 1.12929 2.86102 1.35891 2.81627 1.58735C 2.72852 2.03294 2.61723 2.47734 2.54893 2.92353C 2.47448 3.36121 2.44194 3.80509 2.45177 4.24904C 2.44874 4.3696 2.48515 4.48782 2.5554 4.58546C 2.56944 4.60111 2.58649 4.61371 2.60553 4.62249C 2.62457 4.63126 2.64518 4.63603 2.66611 4.63649C 2.92932 4.62225 3.05651 4.51782 3.09773 4.25735C 3.1837 3.71029 3.25554 3.16086 3.33327 2.61262C 3.39804 2.16288 3.49225 1.40638 3.5688 0.959002C 3.62769 0.626142 3.91446 0.52587 4.19239 0.425004C 4.54923 0.293877 4.91785 0.196571 5.27408 0.0690039C 5.43191 0.0197569 5.8235 -0.0911961 5.88765 0.147917C 5.986 0.515784 5.91239 1.07174 5.85586 1.5998C 5.78814 2.23408 5.75462 2.87132 5.67039 3.50381C 5.56967 4.2615 5.39067 5.0269 5.01324 5.69913C 4.63579 6.37137 3.91976 6.71851 3.19783 6.89173C 3.03885 6.92974 2.90342 6.89173 2.82097 6.74106C 2.78035 6.67044 2.73972 6.66805 2.672 6.7084C 2.30507 6.92868 1.89834 7.07332 1.47547 7.13383C 1.44195 7.1396 1.4077 7.1396 1.37419 7.13383C 1.11804 7.08105 0.855416 7.0496 0.628711 6.90062C 0.402008 6.7517 0.280707 6.53041 0.184137 6.29191C 0.0434081 5.94356 -0.0179651 5.56784 0.00453949 5.19244Z"/>
<path id="path5_fill" d="M 2.65465 3.98875C 2.75929 3.96058 2.86197 3.9255 2.96202 3.88373C 3.08981 3.82025 3.20698 3.7354 3.33299 3.66776C 3.4738 3.58344 3.6218 3.51196 3.77522 3.45416C 3.97013 3.39127 4.12853 3.50281 4.18741 3.70692C 4.23982 3.88492 4.21744 4.06292 4.18211 4.24092C 4.06383 4.82397 3.90323 5.39747 3.70161 5.95685C 3.67578 6.04552 3.62853 6.12631 3.5641 6.19206C 3.49967 6.25782 3.42006 6.30647 3.33241 6.33363C 2.9002 6.47958 2.48035 6.6706 2.04343 6.79876C 1.55525 6.94096 1.05194 7.02382 0.544237 7.04563C 0.459775 7.04912 0.37526 7.04012 0.29339 7.01889C 0.199781 7.00132 0.116931 6.947 0.0630474 6.86791C 0.00916369 6.78881 -0.0113438 6.6914 0.00603371 6.59706C 0.0289986 6.39176 0.0725724 6.18883 0.106726 5.98475C 0.189163 5.49224 0.280434 5.00098 0.349918 4.50673C 0.408802 4.10801 0.434713 3.70514 0.47652 3.30405C 0.509496 2.9878 0.548356 2.67274 0.578388 2.35471C 0.596641 2.16247 0.600177 1.96904 0.616075 1.77621C 0.631974 1.58337 0.657882 1.39232 0.674962 1.20008C 0.698516 0.917655 0.858091 0.725416 1.07478 0.591915C 1.27818 0.466378 1.49217 0.359162 1.71427 0.271516C 1.97336 0.169463 2.24423 0.100636 2.50862 0.0122298C 2.54713 -0.00342162 2.59005 -0.00407233 2.62902 0.0104046C 2.66798 0.0248816 2.70021 0.0534507 2.71943 0.0905501C 2.81826 0.246422 2.87882 0.423782 2.89608 0.607935C 2.96321 1.09922 2.93612 1.59109 2.88489 2.08C 2.826 2.66443 2.74239 3.24708 2.67055 3.83033C 2.66348 3.87186 2.66113 3.91399 2.65465 3.98875Z"/>
<path id="path6_fill" d="M 3.24865 0.894498C 3.24865 1.09326 3.23039 1.2772 3.2198 1.38519C 3.16092 2.03785 3.10792 2.69467 3.04315 3.34793C 2.99604 3.83803 2.96777 4.35245 2.88887 4.84729C 2.81821 5.28873 2.72752 5.88204 2.41014 6.21197C 1.93317 6.71094 1.22126 6.902 0.595911 7.11503C 0.53002 7.13541 0.460817 7.14267 0.392172 7.13637C 0.151923 7.11916 -0.000587143 6.95838 1.69904e-06 6.70977C 0.00587796 6.56852 0.025602 6.42818 0.0588859 6.29085C 0.343297 4.89119 0.493453 3.47253 0.749601 2.06989C 0.827329 1.64388 0.899756 0.810836 1.31077 0.58003C 1.55618 0.443559 1.8108 0.324601 2.07273 0.224031C 2.29296 0.137998 2.5756 -0.013302 2.81644 0.000937956C 3.23039 0.027638 3.24983 0.583593 3.24865 0.894498Z"/>
</defs>
</svg>
