<svg width="93" height="36" viewBox="0 0 93 36" version="1.1" xmlns="http://www.w3.org/2000/svg" xmlns:xlink="http://www.w3.org/1999/xlink">
<title>webiks logo</title>
<desc>Created using Figma</desc>
<g id="Canvas" transform="translate(-5208 465)">
<g id="webiks logo">
<g id="Canvas">
<g id="webiks logo">
<g id="Group">
<g id="Vector">
<g id="Vector">
<use xlink:href="#path0_fill" transform="matrix(2 0 0 2 5244.65 -447.093)" fill="#FFFFFF" fill-opacity="0.54"/>
</g>
</g>
<g id="Vector">
<g id="Vector">
<use xlink:href="#path1_fill" transform="matrix(2 0 0 2 5260.59 -447.353)" fill="#FFFFFF" fill-opacity="0.54"/>
</g>
</g>
<g id="Vector">
<g id="Vector">
<use xlink:href="#path2_fill" transform="matrix(2 0 0 2 5270.58 -451.87)" fill="#FFFFFF" fill-opacity="0.54"/>
</g>
</g>
<g id="Vector">
<g id="Vector">
<use xlink:href="#path3_fill" transform="matrix(2 0 0 2 5280.5 -447.093)" fill="#FFFFFF" fill-opacity="0.54"/>
</g>
</g>
<g id="Vector">
<g id="Vector">
<use xlink:href="#path4_fill" transform="matrix(2 0 0 2 5285.3 -451.87)" fill="#FFFFFF" fill-opacity="0.54"/>
</g>
</g>
<g id="Vector">
<g id="Vector">
<use xlink:href="#path5_fill" transform="matrix(2 0 0 2 5294.17 -447.353)" fill="#FFFFFF" fill-opacity="0.54"/>
</g>
</g>
<g id="Vector">
<g id="Vector">
<use xlink:href="#path6_fill" transform="matrix(2 0 0 2 5280.5 -450.842)" fill="#FFFFFF" fill-opacity="0.54"/>
</g>
</g>
<g id="Vector" opacity="0.5">
<g id="Vector" opacity="0.5">
<use xlink:href="#path7_fill" transform="matrix(2 0 0 2 5224.36 -465)" fill="#FFFFFF" fill-opacity="0.54"/>
</g>
</g>
<g id="Vector">
<g id="Vector">
<use xlink:href="#path8_fill" transform="matrix(2 0 0 2 5232.07 -445.934)" fill="#FFFFFF" fill-opacity="0.54"/>
</g>
</g>
<g id="Vector" opacity="0.78">
<g id="Vector" opacity="0.78">
<use xlink:href="#path9_fill" transform="matrix(2 0 0 2 5208.06 -458.221)" fill="#FFFFFF" fill-opacity="0.54"/>
</g>
</g>
<g id="Vector">
<g id="Vector">
<use xlink:href="#path10_fill" transform="matrix(2 0 0 2 5221.99 -439.335)" fill="#FFFFFF" fill-opacity="0.54"/>
</g>
</g>
<g id="Vector" opacity="0.78">
<g id="Vector" opacity="0.78">
<use xlink:href="#path11_fill" transform="matrix(2 0 0 2 5208 -450.098)" fill="#FFFFFF" fill-opacity="0.54"/>
</g>
</g>
<g id="Vector">
<g id="Vector">
<use xlink:href="#path12_fill" transform="matrix(2 0 0 2 5222.03 -447.452)" fill="#FFFFFF" fill-opacity="0.54"/>
</g>
</g>
<g id="Vector" opacity="0.5">
<g id="Vector" opacity="0.5">
<use xlink:href="#path13_fill" transform="matrix(2 0 0 2 5234.33 -463.488)" fill="#FFFFFF" fill-opacity="0.54"/>
</g>
</g>
<g id="Vector" opacity="0.78">
<g id="Vector" opacity="0.78">
<use xlink:href="#path14_fill" transform="matrix(2 0 0 2 5218 -456.697)" fill="#FFFFFF" fill-opacity="0.54"/>
</g>
</g>
<g id="Vector" opacity="0.5">
<g id="Vector" opacity="0.5">
<use xlink:href="#path15_fill" transform="matrix(2 0 0 2 5224.31 -456.821)" fill="#FFFFFF" fill-opacity="0.54"/>
</g>
</g>
</g>
</g>
</g>
</g>
</g>
<defs>
<path id="path0_fill" d="M 6.12281 4.1948L 5.00677 4.1948L 3.9093 1.46539L 2.80256 4.1948L 1.68647 4.1948L 0 -6.51791e-15L 1.30205 -6.51791e-15L 2.2321 2.66744L 3.30168 -6.51791e-15L 4.47972 -6.51791e-15L 5.54928 2.66744L 6.47935 -6.51791e-15L 7.78141 -6.51791e-15L 6.12281 4.1948Z"/>
<path id="path1_fill" d="M 4.05503 2.65505L 1.24007 2.65505C 1.34857 3.20342 1.82291 3.43577 2.46155 3.43577C 2.89026 3.42828 3.31505 3.35299 3.72019 3.21271L 3.72019 4.20409C 3.31558 4.34642 2.89046 4.42176 2.46155 4.42716C 0.911468 4.42716 2.63481e-13 3.59068 2.63481e-13 2.21823C 2.63481e-13 0.845778 0.799854 4.0652e-16 2.06782 4.0652e-16C 3.33579 4.0652e-16 4.07982 0.889148 4.07982 2.21823C 4.08194 2.36424 4.07366 2.51022 4.05503 2.65505ZM 2.06782 0.966602C 1.86482 0.965092 1.66871 1.04019 1.51871 1.17689C 1.3687 1.31358 1.27585 1.5018 1.25868 1.70394L 2.89558 1.70394C 2.88435 1.49544 2.79096 1.29985 2.63586 1.15994C 2.48075 1.02003 2.27652 0.947178 2.06782 0.957307L 2.06782 0.966602Z"/>
<path id="path2_fill" d="M 1.91592 6.70115C 1.26902 6.68535 0.626112 6.5949 -5.56508e-13 6.4316L -5.56508e-13 1.80703e-15L 1.1967 1.80703e-15L 1.1967 2.38862C 1.4301 2.31744 1.67199 2.27785 1.91592 2.27089C 3.27379 2.27089 4.08603 3.17863 4.08603 4.48912C 4.08603 5.7996 3.26138 6.70115 1.91592 6.70115ZM 1.91592 3.29326C 1.67336 3.29318 1.43177 3.32336 1.1967 3.3831L 1.1967 5.61061C 1.43293 5.66271 1.674 5.68971 1.91592 5.69116C 2.49254 5.69116 2.81497 5.27911 2.81497 4.49532C 2.81497 3.7115 2.48015 3.28706 1.91592 3.28706L 1.91592 3.29326Z"/>
<path id="path3_fill" d="M 1.19589 4.1948L -5.56135e-13 4.1948L -5.56135e-13 -6.51791e-15L 1.19589 -6.51791e-15L 1.19589 4.1948Z"/>
<path id="path4_fill" d="M 2.72501 6.5834L 1.63686 5.28221L 1.19666 5.78411L 1.19666 6.5834L 3.60912e-13 6.5834L 3.60912e-13 1.80703e-15L 1.19666 1.80703e-15L 1.19666 4.1948L 2.72501 2.38862L 4.1356 2.38862L 2.3065 4.49222L 4.12319 6.5865L 2.72501 6.5834Z"/>
<path id="path5_fill" d="M 1.52839 4.44265C 1.03151 4.438 0.537758 4.36289 0.0619881 4.21959L 0.0619881 3.20342C 0.539139 3.34051 1.03204 3.41548 1.52839 3.42648C 2.04922 3.42648 2.20111 3.26537 2.20111 3.09498C 2.20111 2.92459 2.06781 2.78517 1.70819 2.78517C 0.629334 2.78517 -2.97056e-14 2.35454 -2.97056e-14 1.43751C -2.97056e-14 0.718754 0.647921 4.0652e-16 1.88799 4.0652e-16C 2.38694 0.00431691 2.88275 0.0794208 3.36056 0.223062L 3.36056 1.26092C 2.88272 1.11623 2.38719 1.03805 1.88799 1.02856C 1.36716 1.02856 1.21528 1.18966 1.21528 1.36006C 1.21528 1.53045 1.35787 1.66987 1.70819 1.66987C 2.79635 1.66987 3.41638 2.1005 3.41638 3.01753C 3.41638 3.72389 2.77776 4.44265 1.52839 4.44265Z"/>
<path id="path6_fill" d="M 1.19896 0L -5.56135e-13 0L -5.56135e-13 1.19896L 1.19896 1.19896L 1.19896 0Z"/>
<path id="path7_fill" d="M 7.88677 0.653695L 3.02886 0L 1.27712e-13 3.92836L 4.85486 4.54488L 7.88677 0.653695Z"/>
<path id="path8_fill" d="M 2.98545 -4.25294e-15L 1.57993e-13 3.8695L 1.88803 8.40509L 4.87348 4.53249L 2.98545 -4.25294e-15Z"/>
<path id="path9_fill" d="M 7.84961 0.66299L 3.00407 4.2094e-15L -1.27712e-13 3.89738L 4.84245 4.55108L 7.84961 0.66299Z"/>
<path id="path10_fill" d="M 4.88275 0.632011L -2.332e-13 1.70118e-14L 1.8663 4.50461L 6.7739 5.16761L 4.88275 0.632011Z"/>
<path id="path11_fill" d="M -1.36185e-13 -3.25895e-15L 1.87868 4.52939L 6.73356 5.18311L 4.84866 0.653695L -1.36185e-13 -3.25895e-15Z"/>
<path id="path12_fill" d="M 7.87131 0.656795L 3.01335 -4.0652e-16L 1.27712e-13 3.89738L 4.88585 4.5263L 7.87131 0.656795Z"/>
<path id="path13_fill" d="M 1.89419 8.44848L 4.91685 4.54178L 3.02886 -5.31617e-16L 6.78849e-14 3.88809L 1.89419 8.44848Z"/>
<path id="path14_fill" d="M 4.90133 4.5232L 3.00404 -3.19444e-16L 1.27712e-13 3.88809L 1.88488 8.42058L 4.90133 4.5232Z"/>
<path id="path15_fill" d="M 6.75214 5.18001L 4.85486 0.61652L 1.57993e-13 -1.46975e-15L 1.8973 4.5232L 6.75214 5.18001Z"/>
</defs>
</svg>
