<svg width="24" height="24" viewBox="0 0 24 24" version="1.1" xmlns="http://www.w3.org/2000/svg" xmlns:xlink="http://www.w3.org/1999/xlink">
<title>jetpack</title>
<desc>Created using Figma</desc>
<g id="Canvas" transform="translate(-7788 544)">
<g id="jetpack">
<use xlink:href="#path0_fill" transform="matrix(-1 0 0 1 7812 -544)" fill="#000000" stroke="#ffffff"/>
</g>
</g>
<defs>
<path id="path0_fill" d="M 9.78049 4.59292L 6.92683 4.59292L 6.92683 4.09927C 6.92683 3.47612 7.46395 3 8.08415 3L 8.66177 3C 9.28189 3 9.78049 3.47612 9.78049 4.09927L 9.78049 4.59292ZM 5.53377 18.8496L 5.53274 19.6034C 5.53274 20.3776 6.15737 21 6.92786 21L 9.78461 21C 10.5552 21 11.2462 20.3217 11.2462 19.5475L 11.2435 18.8496L 5.53377 18.8496ZM 17.0732 4.09927C 17.0732 3.47612 16.5889 3 15.9687 3L 15.3911 3C 14.7709 3 14.2195 3.47612 14.2195 4.09927L 14.2195 4.59292L 17.0732 4.59292L 17.0732 4.09927ZM 12.8093 18.8496L 12.8066 19.5475C 12.8066 20.3217 13.4976 21 14.2682 21L 17.1249 21C 17.8954 21 18.5201 20.3776 18.5201 19.6034L 18.5191 18.8496L 12.8093 18.8496ZM 21.75 11.5335L 21.75 14.1035C 21.75 15.3255 20.8003 16.301 19.5841 16.301L 18.5158 16.301L 18.5175 17.6549L 12.8141 17.6549L 12.8185 16.5399L 11.2345 16.5399L 11.2389 17.6549L 5.53535 17.6549L 5.5371 16.301L 4.4688 16.301C 3.25259 16.3009 2.25 15.3255 2.25 14.1035L 2.25 11.5334C 2.25 11.2035 2.5161 10.9361 2.84451 10.9361C 3.17292 10.9361 3.43902 11.2035 3.43902 11.5334L 3.43902 14.1035C 3.43902 14.6666 3.90829 15.1062 4.4688 15.1062L 5.53868 15.1062L 5.54938 6.93802C 5.54938 6.16386 6.17402 5.54867 6.94459 5.54867L 9.80134 5.54867C 10.5718 5.54867 11.1965 6.17318 11.1965 6.94734L 11.2041 8.89381L 12.8486 8.89381L 12.8563 6.94734C 12.8563 6.17318 13.481 5.54867 14.2515 5.54867L 17.1082 5.54867C 17.8788 5.54867 18.5034 6.16386 18.5034 6.93802L 18.5142 15.1062L 19.5841 15.1062C 20.1446 15.1062 20.561 14.6666 20.561 14.1035L 20.561 11.5334C 20.561 11.2035 20.8271 10.9361 21.1555 10.9361C 21.4839 10.9361 21.75 11.2035 21.75 11.5335ZM 11.2089 10.0885L 11.2168 12.0796L 12.836 12.0796L 12.8439 10.0885L 11.2089 10.0885ZM 6.75505 7.5C 6.75505 7.82997 7.02116 8.09735 7.34957 8.09735L 9.41054 8.09735C 9.73895 8.09735 10.0051 7.82997 10.0051 7.5C 10.0051 7.17003 9.73895 6.90265 9.41054 6.90265L 7.34957 6.90265C 7.02116 6.90265 6.75505 7.17003 6.75505 7.5ZM 9.41054 11.4425C 9.73895 11.4425 10.0051 11.1751 10.0051 10.8451C 10.0051 10.5152 9.73895 10.2478 9.41054 10.2478L 7.34957 10.2478C 7.02116 10.2478 6.75505 10.5152 6.75505 10.8451C 6.75505 11.1751 7.02116 11.4425 7.34957 11.4425L 9.41054 11.4425ZM 12.8232 15.3451L 12.8314 13.2743L 11.2215 13.2743L 11.2297 15.3451L 12.8232 15.3451ZM 17.2977 10.8451C 17.2977 10.5152 17.0316 10.2478 16.7032 10.2478L 14.6422 10.2478C 14.3138 10.2478 14.0477 10.5152 14.0477 10.8451C 14.0477 11.1751 14.3138 11.4425 14.6422 11.4425L 16.7032 11.4425C 17.0316 11.4425 17.2977 11.1751 17.2977 10.8451ZM 17.2977 7.5C 17.2977 7.17003 17.0316 6.90265 16.7032 6.90265L 14.6422 6.90265C 14.3138 6.90265 14.0477 7.17003 14.0477 7.5C 14.0477 7.82997 14.3138 8.09735 14.6422 8.09735L 16.7032 8.09735C 17.0316 8.09735 17.2977 7.82997 17.2977 7.5Z"/>
</defs>
</svg>
