{
  "accessors": [
    {
      "bufferView": 2,
      "componentType": 5126,
      "count": 4325,
      "max": [
        89.491203308105469,
        13.467100143432617,
        186.781005859375
      ],
      "min": [
        -89.490898132324219,
        -18.643100738525391,
        -0.023299999535083771
      ],
      "type": "VEC3"
    },
    {
      "bufferView": 2,
      "byteOffset": 51900,
      "componentType": 5126,
      "count": 4325,
      "max": [
        1,
        0.99993395805358887,
        1
      ],
      "min": [
        -1,
        -1,
        -1
      ],
      "type": "VEC3"
    },
    {
      "bufferView": 1,
      "componentType": 5126,
      "count": 4325,
      "max": [
        0.99860000610351562,
        0.99479997158050537
      ],
      "min": [
        0.00030000001424923539,
        0.0031999999191612005
      ],
      "type": "VEC2"
    },
    {
      "bufferView": 3,
      "componentType": 5126,
      "count": 4325,
      "max": [
        1,
        1,
        0.99959403276443481,
        1
      ],
      "min": [
        -1,
        -0.99984639883041382,
        -0.99993389844894409,
        -1
      ],
      "type": "VEC4"
    },
    {
      "bufferView": 0,
      "componentType": 5125,
      "count": 6897,
      "max": [
        4324
      ],
      "min": [
        0
      ],
      "type": "SCALAR"
    },
    {
      "bufferView": 2,
      "byteOffset": 103800,
      "componentType": 5126,
      "count": 24,
      "max": [
        7.0943999290466309,
        -6.3997998237609863,
        173.99929809570312
      ],
      "min": [
        -7.0939998626708984,
        -11.187600135803223,
        170.44209289550781
      ],
      "type": "VEC3"
    },
    {
      "bufferView": 2,
      "byteOffset": 104088,
      "componentType": 5126,
      "count": 24,
      "max": [
        0.84337937831878662,
        0.86512774229049683,
        -0.11550328135490417
      ],
      "min": [
        -0.91849768161773682,
        -0.86512774229049683,
        -0.89427757263183594
      ],
      "type": "VEC3"
    },
    {
      "bufferView": 1,
      "byteOffset": 34600,
      "componentType": 5126,
      "count": 24,
      "max": [
        0.94099998474121094,
        1.9457000494003296
      ],
      "min": [
        0.037399999797344208,
        1.5698000192642212
      ],
      "type": "VEC2"
    },
    {
      "bufferView": 3,
      "byteOffset": 69200,
      "componentType": 5126,
      "count": 24,
      "max": [
        0.95096814632415771,
        0.78440964221954346,
        0.46929743885993958,
        1
      ],
      "min": [
        -0.26667657494544983,
        -0.90239161252975464,
        -0.6140933632850647,
        -1
      ],
      "type": "VEC4"
    },
    {
      "bufferView": 0,
      "byteOffset": 27588,
      "componentType": 5125,
      "count": 24,
      "max": [
        23
      ],
      "min": [
        0
      ],
      "type": "SCALAR"
    }
  ],
  "asset": {
    "generator": "Sketchfab (OSG glTF plugin)",
    "version": "2.0"
  },
  "bufferViews": [
    {
      "buffer": 0,
      "byteLength": 27684,
      "byteOffset": 0,
      "name": "ScalarBufferView",
      "target": 34963
    },
    {
      "buffer": 0,
      "byteLength": 34792,
      "byteOffset": 27684,
      "byteStride": 8,
      "name": "Vec3BufferView",
      "target": 34962
    },
    {
      "buffer": 0,
      "byteLength": 104376,
      "byteOffset": 62476,
      "byteStride": 12,
      "name": "Vec4BufferView",
      "target": 34962
    },
    {
      "buffer": 0,
      "byteLength": 69584,
      "byteOffset": 166852,
      "byteStride": 16,
      "name": "MatrixBufferView",
      "target": 34962
    }
  ],
  "buffers": [
    {
      "byteLength": 236436,
      "uri": "scene.bin"
    }
  ],
  "images": [
    {
      "uri": "textures/tex_030_01_png_baseColor.png"
    },
    {
      "uri": "textures/tex_030_02_png_baseColor.png"
    }
  ],
  "materials": [
    {
      "doubleSided": true,
      "emissiveFactor": [
        0,
        0,
        0
      ],
      "name": "tex_030_01_png",
      "pbrMetallicRoughness": {
        "baseColorFactor": [
          1,
          1,
          1,
          1
        ],
        "baseColorTexture": {
          "index": 0,
          "texCoord": 0
        },
        "metallicFactor": 0,
        "roughnessFactor": 1
      }
    },
    {
      "doubleSided": true,
      "emissiveFactor": [
        0,
        0,
        0
      ],
      "name": "tex_030_02_png",
      "pbrMetallicRoughness": {
        "baseColorFactor": [
          1,
          1,
          1,
          1
        ],
        "baseColorTexture": {
          "index": 1,
          "texCoord": 0
        },
        "metallicFactor": 0,
        "roughnessFactor": 1
      }
    }
  ],
  "meshes": [
    {
      "name": "avgs_030",
      "primitives": [
        {
          "attributes": {
            "NORMAL": 1,
            "POSITION": 0,
            "TANGENT": 3,
            "TEXCOORD_0": 2
          },
          "indices": 4,
          "material": 0,
          "mode": 4
        },
        {
          "attributes": {
            "NORMAL": 6,
            "POSITION": 5,
            "TANGENT": 8,
            "TEXCOORD_0": 7
          },
          "indices": 9,
          "material": 1,
          "mode": 4
        }
      ]
    }
  ],
  "nodes": [
    {
      "children": [
        1
      ],
      "name": "RootNode (gltf orientation matrix)",
      "rotation": [
        -0.70710678118654746,
        -0,
        -0,
        0.70710678118654757
      ]
    },
    {
      "children": [
        2
      ],
      "name": "RootNode (model correction matrix)"
    },
    {
      "children": [
        3
      ],
      "name": "avgs Captain America.obj.cleaner.materialmerger.gles"
    },
    {
      "mesh": 0,
      "name": "avgs_030"
    }
  ],
  "samplers": [
    {
      "magFilter": 9729,
      "minFilter": 9987,
      "wrapS": 10497,
      "wrapT": 10497
    }
  ],
  "scene": 0,
  "scenes": [
    {
      "name": "OSG_Scene",
      "nodes": [
        0
      ]
    }
  ],
  "textures": [
    {
      "sampler": 0,
      "source": 0
    },
    {
      "sampler": 0,
      "source": 1
    }
  ]
}

