{
  "accessors": [
    {
      "name": "Body_Diffuse.png_1_positions",
      "componentType": 5126,
      "count": 3687,
      "min": [
        -76.54132080078125,
        -1.632483959197998,
        -20.676942825317383
      ],
      "max": [
        76.15817260742188,
        199.25125122070312,
        28.51369857788086
      ],
      "type": "VEC3",
      "bufferView": 0,
      "byteOffset": 0
    },
    {
      "name": "Body_Diffuse.png_1_normals",
      "componentType": 5126,
      "count": 3687,
      "min": [
        -0.9999240040779114,
        -0.9997149705886841,
        -0.999364972114563
      ],
      "max": [
        0.9999240040779114,
        0.9996510148048401,
        0.9996539950370789
      ],
      "type": "VEC3",
      "bufferView": 0,
      "byteOffset": 44244
    },
    {
      "name": "Body_Diffuse.png_1_texcoords",
      "componentType": 5126,
      "count": 3687,
      "min": [
        -19.21875,
        -1.9785159826278687
      ],
      "max": [
        0.9785159826278687,
        0.9873049855232239
      ],
      "type": "VEC2",
      "bufferView": 1,
      "byteOffset": 0
    },
    {
      "name": "Body_Diffuse.png_1_0_indices",
      "componentType": 5123,
      "count": 16974,
      "min": [
        0
      ],
      "max": [
        3686
      ],
      "type": "SCALAR",
      "bufferView": 2,
      "byteOffset": 0
    }
  ],
  "asset": {
    "generator": "obj2gltf",
    "version": "2.0"
  },
  "buffers": [
    {
      "name": "Batman",
      "byteLength": 451476,
      "uri": "data:application/octet-stream;base64,"
    }
  ],
  "bufferViews": [
    {
      "name": "bufferView_0",
      "buffer": 0,
      "byteLength": 88488,
      "byteOffset": 0,
      "byteStride": 12,
      "target": 34962
    },
    {
      "name": "bufferView_1",
      "buffer": 0,
      "byteLength": 29496,
      "byteOffset": 88488,
      "byteStride": 8,
      "target": 34962
    },
    {
      "name": "bufferView_2",
      "buffer": 0,
      "byteLength": 33948,
      "byteOffset": 117984,
      "target": 34963
    },
    {
      "buffer": 0,
      "byteOffset": 151932,
      "byteLength": 299543
    }
  ],
  "images": [
    {
      "name": "Body_Diffuse",
      "mimeType": "image/png",
      "bufferView": 3
    }
  ],
  "materials": [
    {
      "name": "Body_Diffuse.png",
      "pbrMetallicRoughness": {
        "baseColorTexture": {
          "index": 0
        },
        "baseColorFactor": [
          1,
          1,
          1,
          1
        ],
        "metallicFactor": 0,
        "roughnessFactor": 1
      },
      "emissiveFactor": [
        0,
        0,
        0
      ],
      "alphaMode": "OPAQUE",
      "doubleSided": false
    }
  ],
  "meshes": [
    {
      "name": "Body_Diffuse.png_1",
      "primitives": [
        {
          "attributes": {
            "POSITION": 0,
            "NORMAL": 1,
            "TEXCOORD_0": 2
          },
          "indices": 3,
          "material": 0,
          "mode": 4
        }
      ]
    }
  ],
  "nodes": [
    {
      "name": "Body_Diffuse.png",
      "mesh": 0
    }
  ],
  "samplers": [
    {
      "magFilter": 9729,
      "minFilter": 9986,
      "wrapS": 10497,
      "wrapT": 10497
    }
  ],
  "scene": 0,
  "scenes": [
    {
      "nodes": [
        0
      ]
    }
  ],
  "textures": [
    {
      "name": "Body_Diffuse",
      "sampler": 0,
      "source": 0
    }
  ]
}
