{
  "accessors": [
    {
      "name": "Node-Mesh_positions",
      "componentType": 5126,
      "count": 1489,
      "min": [
        -0.6371470093727112,
        0.04171999916434288,
        -0.14822599291801453
      ],
      "max": [
        0.6285660266876221,
        1.7730239629745483,
        0.1626249998807907
      ],
      "type": "VEC3",
      "bufferView": 0,
      "byteOffset": 0
    },
    {
      "name": "Node-Mesh_texcoords",
      "componentType": 5126,
      "count": 1489,
      "min": [
        -0.0035989999305456877,
        -0.9949250221252441
      ],
      "max": [
        0.996491014957428,
        -0.002239000052213669
      ],
      "type": "VEC2",
      "bufferView": 1,
      "byteOffset": 0
    },
    {
      "name": "Node-Mesh_0_indices",
      "componentType": 5123,
      "count": 5010,
      "min": [
        0
      ],
      "max": [
        1348
      ],
      "type": "SCALAR",
      "bufferView": 2,
      "byteOffset": 0
    },
    {
      "name": "Node-Mesh_1_indices",
      "componentType": 5123,
      "count": 276,
      "min": [
        1349
      ],
      "max": [
        1488
      ],
      "type": "SCALAR",
      "bufferView": 2,
      "byteOffset": 10020
    }
  ],
  "asset": {
    "generator": "obj2gltf",
    "version": "2.0"
  },
  "buffers": [
    {
      "name": "M-FF_iOS_HERO_Natasha_Romanoff_Black_Widow_Avengers",
      "byteLength": 166672,
      "uri": "data:application/octet-stream;base64,"
    }
  ],
  "bufferViews": [
    {
      "name": "bufferView_0",
      "buffer": 0,
      "byteLength": 17868,
      "byteOffset": 0,
      "byteStride": 12,
      "target": 34962
    },
    {
      "name": "bufferView_1",
      "buffer": 0,
      "byteLength": 11912,
      "byteOffset": 17868,
      "byteStride": 8,
      "target": 34962
    },
    {
      "name": "bufferView_2",
      "buffer": 0,
      "byteLength": 10572,
      "byteOffset": 29780,
      "target": 34963
    },
    {
      "buffer": 0,
      "byteOffset": 40352,
      "byteLength": 104384
    },
    {
      "buffer": 0,
      "byteOffset": 144736,
      "byteLength": 21933
    }
  ],
  "images": [
    {
      "name": "M-FF_iOS_HERO_Natasha_Romanoff_Black_Widow_Avengers_Body_D",
      "mimeType": "image/png",
      "bufferView": 3
    },
    {
      "name": "M-FF_iOS_HERO_Natasha_Romanoff_Black_Widow_Avengers_Weapon_D",
      "mimeType": "image/png",
      "bufferView": 4
    }
  ],
  "materials": [
    {
      "name": "MFF_iOS_HER_NRO_AVE_B",
      "pbrMetallicRoughness": {
        "baseColorTexture": {
          "index": 0
        },
        "baseColorFactor": [
          1,
          1,
          1,
          1
        ],
        "metallicFactor": 0,
        "roughnessFactor": 0.881323529775
      },
      "emissiveFactor": [
        0,
        0,
        0
      ],
      "alphaMode": "OPAQUE",
      "doubleSided": false
    },
    {
      "name": "MFF_iOS_HER_NRO_AVE_W",
      "pbrMetallicRoughness": {
        "baseColorTexture": {
          "index": 1
        },
        "baseColorFactor": [
          1,
          1,
          1,
          1
        ],
        "metallicFactor": 0,
        "roughnessFactor": 0.881323529775
      },
      "emissiveFactor": [
        0,
        0,
        0
      ],
      "alphaMode": "OPAQUE",
      "doubleSided": false
    }
  ],
  "meshes": [
    {
      "name": "Node-Mesh",
      "primitives": [
        {
          "attributes": {
            "POSITION": 0,
            "TEXCOORD_0": 1
          },
          "indices": 2,
          "material": 0,
          "mode": 4
        },
        {
          "attributes": {
            "POSITION": 0,
            "TEXCOORD_0": 1
          },
          "indices": 3,
          "material": 1,
          "mode": 4
        }
      ]
    }
  ],
  "nodes": [
    {
      "name": "Node",
      "mesh": 0
    }
  ],
  "samplers": [
    {
      "magFilter": 9729,
      "minFilter": 9986,
      "wrapS": 10497,
      "wrapT": 10497
    }
  ],
  "scene": 0,
  "scenes": [
    {
      "nodes": [
        0
      ]
    }
  ],
  "textures": [
    {
      "name": "M-FF_iOS_HERO_Natasha_Romanoff_Black_Widow_Avengers_Body_D",
      "sampler": 0,
      "source": 0
    },
    {
      "name": "M-FF_iOS_HERO_Natasha_Romanoff_Black_Widow_Avengers_Weapon_D",
      "sampler": 0,
      "source": 1
    }
  ]
}
