{"accessors":[{"name":"objMesh_1_positions","componentType":5126,"count":1349,"min":[-0.37916699051856995,0.04171999916434288,-0.12862800061702728],"max":[0.3772149980068207,1.7730239629745483,0.1626249998807907],"type":"VEC3","bufferView":0,"byteOffset":0},{"name":"objMesh_1_normals","componentType":5126,"count":1349,"min":[-0.9970129728317261,-1,-0.9981970191001892],"max":[0.9974250197410583,0.9880800247192383,0.9979349970817566],"type":"VEC3","bufferView":0,"byteOffset":16188},{"name":"objMesh_1_texcoords","componentType":5126,"count":1349,"min":[-0.0035989999305456877,-0.9949250221252441],"max":[0.996491014957428,-0.002239000052213669],"type":"VEC2","bufferView":1,"byteOffset":0},{"name":"objMesh_1_0_indices","componentType":5123,"count":5010,"min":[0],"max":[1348],"type":"SCALAR","bufferView":2,"byteOffset":0}],"asset":{"generator":"obj2gltf","version":"2.0"},"buffers":[{"name":"black_widow","byteLength":159128,"uri":"data:application/octet-stream;base64,"}],"bufferViews":[{"name":"bufferView_0","buffer":0,"byteLength":32376,"byteOffset":0,"byteStride":12,"target":34962},{"name":"bufferView_1","buffer":0,"byteLength":10792,"byteOffset":32376,"byteStride":8,"target":34962},{"name":"bufferView_2","buffer":0,"byteLength":10020,"byteOffset":43168,"target":34963},{"buffer":0,"byteOffset":53188,"byteLength":105940}],"images":[{"name":"M-FF_iOS_HERO_Natasha_Romanoff_Black_Widow_Avengers_Body_D0000","mimeType":"image/png","bufferView":3}],"materials":[{"name":"MFF_iOS_HER_NRO_AVE_B","pbrMetallicRoughness":{"baseColorTexture":{"index":0},"baseColorFactor":[1,1,1,1],"metallicFactor":0,"roughnessFactor":0.8832352737},"emissiveFactor":[0,0,0],"alphaMode":"OPAQUE","doubleSided":false}],"meshes":[{"name":"objMesh_1","primitives":[{"attributes":{"POSITION":0,"NORMAL":1,"TEXCOORD_0":2},"indices":3,"material":0,"mode":4}]}],"nodes":[{"name":"objMesh","mesh":0}],"samplers":[{"magFilter":9729,"minFilter":9986,"wrapS":10497,"wrapT":10497}],"scene":0,"scenes":[{"nodes":[0]}],"textures":[{"name":"M-FF_iOS_HERO_Natasha_Romanoff_Black_Widow_Avengers_Body_D0000","sampler":0,"source":0}]}
