{"accessors":[{"name":"Plane01__1_1_positions","componentType":5126,"count":4,"min":[-102.44120025634766,-4.128699779510498,-130.6779022216797],"max":[124.50350189208984,-4.128699779510498,152.28179931640625],"type":"VEC3","bufferView":0,"byteOffset":0},{"name":"Plane01__1_1_normals","componentType":5126,"count":4,"min":[0,1,0],"max":[0,1,0],"type":"VEC3","bufferView":0,"byteOffset":8244},{"name":"Plane01__1_1_0_indices","componentType":5123,"count":6,"min":[0],"max":[3],"type":"SCALAR","bufferView":2,"byteOffset":0},{"name":"boar_____1_1_positions","componentType":5126,"count":683,"min":[-5.67710018157959,-4.165900230407715,1.038100004196167],"max":[11.160599708557129,6.68209981918335,6.442500114440918],"type":"VEC3","bufferView":0,"byteOffset":48},{"name":"boar_____1_1_normals","componentType":5126,"count":683,"min":[-1,-1,-0.9986000061035156],"max":[0.9994000196456909,0.9968000054359436,0.9976999759674072],"type":"VEC3","bufferView":0,"byteOffset":8292},{"name":"boar_____1_1_texcoords","componentType":5126,"count":683,"min":[0.004000000189989805,0.018699999898672104],"max":[0.9940999746322632,0.9879000186920166],"type":"VEC2","bufferView":1,"byteOffset":0},{"name":"boar_____1_1_0_indices","componentType":5123,"count":3204,"min":[0],"max":[682],"type":"SCALAR","bufferView":2,"byteOffset":12}],"asset":{"generator":"obj2gltf","version":"2.0"},"buffers":[{"name":"input","byteLength":28372,"uri":"data:application/octet-stream;base64,"}],"bufferViews":[{"name":"bufferView_0","buffer":0,"byteLength":16488,"byteOffset":0,"byteStride":12,"target":34962},{"name":"bufferView_1","buffer":0,"byteLength":5464,"byteOffset":16488,"byteStride":8,"target":34962},{"name":"bufferView_2","buffer":0,"byteLength":6420,"byteOffset":21952,"target":34963}],"materials":[{"name":"Plane01","pbrMetallicRoughness":{"baseColorFactor":[0.5,0.5,0.5,1],"metallicFactor":0,"roughnessFactor":1},"emissiveFactor":[0,0,0],"alphaMode":"OPAQUE","doubleSided":false},{"name":"Material__25","pbrMetallicRoughness":{"baseColorFactor":[0.5,0.5,0.5,1],"metallicFactor":0,"roughnessFactor":1},"emissiveFactor":[0,0,0],"alphaMode":"OPAQUE","doubleSided":false}],"meshes":[{"name":"Plane01__1_1","primitives":[{"attributes":{"POSITION":0,"NORMAL":1},"indices":2,"material":0,"mode":4}]},{"name":"boar_____1_1","primitives":[{"attributes":{"POSITION":3,"NORMAL":4,"TEXCOORD_0":5},"indices":6,"material":1,"mode":4}]}],"nodes":[{"name":"Plane01__1","mesh":0},{"name":"boar_____1","mesh":1}],"scene":0,"scenes":[{"nodes":[0,1]}]}
