{"accessors":{"accessor_0":{"bufferView":"bufferView_0","byteOffset":0,"byteStride":0,"componentType":5126,"count":31998,"min":[-34.345619201660156,-73.46533203125,-45.63582992553711],"max":[19.640880584716797,-28.24074935913086,36.58570861816406],"type":"VEC3"},"accessor_1":{"bufferView":"bufferView_0","byteOffset":383976,"byteStride":0,"componentType":5126,"count":31998,"min":[0.0012400000123307109,0.0013899999903514981],"max":[0.21326999366283417,0.40591999888420105],"type":"VEC2"},"accessor_2":{"bufferView":"bufferView_1","byteOffset":0,"byteStride":0,"componentType":5123,"count":173964,"min":[0],"max":[31997],"type":"SCALAR"}},"asset":{"generator":"obj2gltf","profile":{"api":"WebGL","version":"1.0"},"version":"1.0","premultipliedAlpha":true},"buffers":{"buffer":{"byteLength":987888,"uri":"data:application/octet-stream;base64,","type":"arraybuffer"}},"bufferViews":{"bufferView_0":{"buffer":"buffer","byteLength":639960,"byteOffset":0,"target":34962},"bufferView_1":{"buffer":"buffer","byteLength":347928,"byteOffset":639960,"target":34963}},"extensionsUsed":[],"images":{},"materials":{"material0":{"technique":"technique0","values":{"ambient":[0,0,0,1],"diffuse":[0,0,0,1],"emission":[0.5,0.5,0.5,1],"specular":[0,0,0,1],"shininess":0,"transparency":1}}},"meshes":{"Node-Mesh":{"name":"Node-Mesh","primitives":[{"attributes":{"POSITION":"accessor_0","TEXCOORD_0":"accessor_1"},"indices":"accessor_2","material":"material0","mode":4}]}},"nodes":{"Node":{"name":"Node","meshes":["Node-Mesh"],"children":[],"matrix":[1,0,0,0,0,1,0,0,0,0,1,0,0,0,0,1]}},"samplers":{},"scene":"scene","scenes":{"scene":{"nodes":["Node"]}},"textures":{},"animations":{},"cameras":{},"programs":{"program0":{"attributes":["a_position","a_texcoord_0"],"fragmentShader":"fragmentShader0","vertexShader":"vertexShader0"}},"shaders":{"vertexShader0":{"type":35633,"uri":"data:text/plain;base64,"},"fragmentShader0":{"type":35632,"uri":"data:text/plain;base64,"}},"skins":{},"techniques":{"technique0":{"attributes":{"a_position":"position","a_texcoord_0":"texcoord_0"},"parameters":{"modelViewMatrix":{"semantic":"MODELVIEW","type":35676},"projectionMatrix":{"semantic":"PROJECTION","type":35676},"ambient":{"type":35666},"diffuse":{"type":35666},"emission":{"type":35666},"specular":{"type":35666},"shininess":{"type":5126},"transparency":{"type":5126},"position":{"semantic":"POSITION","type":35665},"texcoord_0":{"semantic":"TEXCOORD_0","type":5126}},"program":"program0","states":{"enable":[2884,2929]},"uniforms":{"u_modelViewMatrix":"modelViewMatrix","u_projectionMatrix":"projectionMatrix","u_ambient":"ambient","u_diffuse":"diffuse","u_emission":"emission","u_specular":"specular","u_shininess":"shininess","u_transparency":"transparency"}}}}
