{"accessors":[{"bufferView":0,"componentType":5123,"count":38742,"max":[7292],"min":[0],"type":"SCALAR"},{"bufferView":1,"componentType":5126,"count":7293,"max":[0.41341298818588257,0.17125900089740753,-0.00990699976682663],"min":[-0.4365450143814087,-0.18585200607776642,-1.8248399496078491],"type":"VEC3"},{"bufferView":2,"componentType":5126,"count":7293,"max":[0.999969482421875,0.999908447265625,0.999847412109375],"min":[-0.99993896484375,-0.999969482421875,-0.99981689453125],"type":"VEC3"},{"bufferView":3,"componentType":5126,"count":7293,"max":[1.0,0.999946117401123,0.9856882095336914,1.0],"min":[-0.9999999403953552,-0.999847412109375,-0.9998100399971008,-1.0],"type":"VEC4"},{"bufferView":4,"componentType":5126,"count":7293,"max":[0.9863280057907104,0.98828100040555],"min":[0.027312999591231346,0.02063000202178955],"type":"VEC2"},{"bufferView":5,"componentType":5123,"count":24924,"max":[5940],"min":[0],"type":"SCALAR"},{"bufferView":6,"componentType":5126,"count":5941,"max":[0.22900299727916718,0.1370919942855835,-0.7405790090560913],"min":[-0.22900299727916718,-0.23216700553894043,-1.646239995956421],"type":"VEC3"},{"bufferView":7,"componentType":5126,"count":5941,"max":[1.0,0.999969482421875,0.999542236328125],"min":[-1.0,-0.999755859375,-0.99957275390625],"type":"VEC3"},{"bufferView":8,"componentType":5126,"count":5941,"max":[1.0,0.9998747706413269,0.9999967217445374,1.0],"min":[-0.9999986290931702,-0.9999809861183167,-0.999152660369873,-1.0],"type":"VEC4"},{"bufferView":9,"componentType":5126,"count":5941,"max":[1.995116949081421,0.9985350000206381],"min":[-3.099999958067201e-05,0.004218995571136475],"type":"VEC2"}],"asset":{"generator":"Khronos Blender glTF 2.0 exporter","version":"2.0"},"bufferViews":[{"buffer":0,"byteLength":77484,"byteOffset":0,"target":34963},{"buffer":0,"byteLength":87516,"byteOffset":77484,"target":34962},{"buffer":0,"byteLength":87516,"byteOffset":165000,"target":34962},{"buffer":0,"byteLength":116688,"byteOffset":252516,"target":34962},{"buffer":0,"byteLength":58344,"byteOffset":369204,"target":34962},{"buffer":0,"byteLength":49848,"byteOffset":427548,"target":34963},{"buffer":0,"byteLength":71292,"byteOffset":477396,"target":34962},{"buffer":0,"byteLength":71292,"byteOffset":548688,"target":34962},{"buffer":0,"byteLength":95056,"byteOffset":619980,"target":34962},{"buffer":0,"byteLength":47528,"byteOffset":715036,"target":34962}],"buffers":[{"byteLength":762564,"uri":"data:application/octet-stream;base64,"}],"images":[{"mimeType":"image/jpeg","name":"DEA_PC_DEADPOOL_Wade_Wilson_Deadpool_Classic_Acc_D","uri":"data:image/jpeg;base64,"},{"mimeType":"image/jpeg","name":"DEA_PC_DEADPOOL_Wade_Wilson_Deadpool_Classic_Body_D","uri":"data:image/jpeg;base64,"}],"materials":[{"alphaMode":"BLEND","name":"DEA_PC_DEA_WWI_CLA_A","pbrMetallicRoughness":{"baseColorFactor":[0.6399999856948853,0.6399999856948853,0.6399999856948853,1.0],"baseColorTexture":{"index":0},"metallicFactor":0.0}},{"alphaMode":"BLEND","name":"DEA_PC_DEA_WWI_CLA_B","pbrMetallicRoughness":{"baseColorFactor":[0.6399999856948853,0.6399999856948853,0.6399999856948853,1.0],"baseColorTexture":{"index":1},"metallicFactor":0.0}}],"meshes":[{"name":"objMesh","primitives":[{"attributes":{"NORMAL":2,"POSITION":1,"TANGENT":3,"TEXCOORD_0":4},"indices":0,"material":1},{"attributes":{"NORMAL":7,"POSITION":6,"TANGENT":8,"TEXCOORD_0":9},"indices":5,"material":0}]}],"nodes":[{"name":"Camera","rotation":[0.483536034822464,0.33687159419059753,-0.20870360732078552,0.7804827094078064],"translation":[7.481131553649902,5.34366512298584,6.5076398849487305]},{"name":"Lamp","rotation":[0.16907575726509094,0.7558802962303162,-0.27217137813568115,0.570947527885437],"scale":[1.0,1.0,0.9999999403953552],"translation":[4.076245307922363,5.903861999511719,-1.0054539442062378]},{"mesh":0,"name":"objMesh","rotation":[0.7071068286895752,0.0,-0.0,0.7071067094802856]}],"samplers":[{}],"scene":0,"scenes":[{"name":"Scene","nodes":[2,1,0]}],"textures":[{"sampler":0,"source":0},{"sampler":0,"source":1}]}
