{"accessors":[{"name":"Head_head-Mesh_positions","componentType":5126,"count":898,"min":[0.3260439932346344,4.318663120269775,2.0610430240631104],"max":[1.7453700304031372,5.5116047859191895,3.3642330169677734],"type":"VEC3","bufferView":0,"byteOffset":0},{"name":"Head_head-Mesh_normals","componentType":5126,"count":898,"min":[-0.9951000213623047,-0.9998000264167786,-0.9972000122070312],"max":[0.9997000098228455,0.9991999864578247,0.9973000288009644],"type":"VEC3","bufferView":0,"byteOffset":34044},{"name":"Head_head-Mesh_texcoords","componentType":5126,"count":898,"min":[0.04866199940443039,0.03749899938702583],"max":[0.9844710230827332,0.9686409831047058],"type":"VEC2","bufferView":1,"byteOffset":0},{"name":"Head_head-Mesh_0_indices","componentType":5123,"count":4794,"min":[0],"max":[897],"type":"SCALAR","bufferView":2,"byteOffset":0},{"name":"Eyes_eyes-Mesh_positions","componentType":5126,"count":50,"min":[0.763903021812439,4.797010898590088,2.589832067489624],"max":[1.0466879606246948,4.995914936065674,3.148261070251465],"type":"VEC3","bufferView":0,"byteOffset":10776},{"name":"Eyes_eyes-Mesh_normals","componentType":5126,"count":50,"min":[-0.8715000152587891,-0.9552000164985657,-0.9368000030517578],"max":[0.9865000247955322,0.9575999975204468,0.9735999703407288],"type":"VEC3","bufferView":0,"byteOffset":44820},{"name":"Eyes_eyes-Mesh_texcoords","componentType":5126,"count":50,"min":[0.0735040009021759,0.047113001346588135],"max":[0.44221100211143494,0.23332099616527557],"type":"VEC2","bufferView":1,"byteOffset":7184},{"name":"Eyes_eyes-Mesh_0_indices","componentType":5123,"count":240,"min":[0],"max":[49],"type":"SCALAR","bufferView":2,"byteOffset":9588},{"name":"Body_body-Mesh_positions","componentType":5126,"count":1889,"min":[-0.7485849857330322,-0.032930001616477966,-2.140079975128174],"max":[0.8148139715194702,5.127786159515381,2.9875309467315674],"type":"VEC3","bufferView":0,"byteOffset":11376},{"name":"Body_body-Mesh_normals","componentType":5126,"count":1889,"min":[-0.9998999834060669,-0.9994000196456909,-0.9994999766349792],"max":[0.9998000264167786,0.9998999834060669,0.9987000226974487],"type":"VEC3","bufferView":0,"byteOffset":45420},{"name":"Body_body-Mesh_texcoords","componentType":5126,"count":1889,"min":[0.00023600000713486224,0.008665000088512897],"max":[0.9988660216331482,0.9925209879875183],"type":"VEC2","bufferView":1,"byteOffset":7584},{"name":"Body_body-Mesh_0_indices","componentType":5123,"count":9312,"min":[0],"max":[1888],"type":"SCALAR","bufferView":2,"byteOffset":10068}],"asset":{"generator":"obj2gltf","version":"2.0"},"buffers":[{"name":"deer","byteLength":2780092,"uri":"data:application/octet-stream;base64,"}],"bufferViews":[{"name":"bufferView_0","buffer":0,"byteLength":68088,"byteOffset":0,"byteStride":12,"target":34962},{"name":"bufferView_1","buffer":0,"byteLength":22696,"byteOffset":68088,"byteStride":8,"target":34962},{"name":"bufferView_2","buffer":0,"byteLength":28692,"byteOffset":90784,"target":34963},{"buffer":0,"byteOffset":119476,"byteLength":1230375},{"buffer":0,"byteOffset":1349851,"byteLength":1430240}],"images":[{"name":"doe-head","mimeType":"image/png","bufferView":3},{"name":"doe-body","mimeType":"image/png","bufferView":4}],"materials":[{"name":"head","pbrMetallicRoughness":{"baseColorTexture":{"index":0},"baseColorFactor":[1,1,1,1],"metallicFactor":0,"roughnessFactor":0.903921569},"emissiveFactor":[0,0,0],"alphaMode":"OPAQUE","doubleSided":false},{"name":"Eye","pbrMetallicRoughness":{"baseColorTexture":{"index":0},"baseColorFactor":[1,1,1,1],"metallicFactor":0,"roughnessFactor":0.180392157},"emissiveFactor":[0,0,0],"alphaMode":"OPAQUE","doubleSided":false},{"name":"body","pbrMetallicRoughness":{"baseColorTexture":{"index":1},"baseColorFactor":[1,1,1,1],"metallicFactor":0,"roughnessFactor":0.7352941180000001},"emissiveFactor":[0,0,0],"alphaMode":"OPAQUE","doubleSided":false}],"meshes":[{"name":"Head_head-Mesh","primitives":[{"attributes":{"POSITION":0,"NORMAL":1,"TEXCOORD_0":2},"indices":3,"material":0,"mode":4}]},{"name":"Eyes_eyes-Mesh","primitives":[{"attributes":{"POSITION":4,"NORMAL":5,"TEXCOORD_0":6},"indices":7,"material":1,"mode":4}]},{"name":"Body_body-Mesh","primitives":[{"attributes":{"POSITION":8,"NORMAL":9,"TEXCOORD_0":10},"indices":11,"material":2,"mode":4}]}],"nodes":[{"name":"Head_head","mesh":0},{"name":"Eyes_eyes","mesh":1},{"name":"Body_body","mesh":2}],"samplers":[{"magFilter":9729,"minFilter":9986,"wrapS":10497,"wrapT":10497}],"scene":0,"scenes":[{"nodes":[0,1,2]}],"textures":[{"name":"doe-head","sampler":0,"source":0},{"name":"doe-body","sampler":0,"source":1}]}
