{
  "accessors": [
    {
      "name": "mesh_2_positions",
      "componentType": 5126,
      "count": 834,
      "min": [
        -2.533210039138794,
        45.90610122680664,
        -0.13020199537277222
      ],
      "max": [
        2.537179946899414,
        47.95240020751953,
        4.906569957733154
      ],
      "type": "VEC3",
      "bufferView": 0,
      "byteOffset": 0
    },
    {
      "name": "mesh_2_normals",
      "componentType": 5126,
      "count": 834,
      "min": [
        -1,
        -0.9999639987945557,
        -0.7866389751434326
      ],
      "max": [
        1,
        0.9999989867210388,
        0.9989380240440369
      ],
      "type": "VEC3",
      "bufferView": 0,
      "byteOffset": 111456
    },
    {
      "name": "mesh_2_texcoords",
      "componentType": 5126,
      "count": 834,
      "min": [
        -5.190760135650635,
        0.46945101022720337
      ],
      "max": [
        2.872499942779541,
        7.094789981842041
      ],
      "type": "VEC2",
      "bufferView": 1,
      "byteOffset": 0
    },
    {
      "name": "mesh_2_0_indices",
      "componentType": 5123,
      "count": 834,
      "min": [
        0
      ],
      "max": [
        833
      ],
      "type": "SCALAR",
      "bufferView": 2,
      "byteOffset": 0
    },
    {
      "name": "mesh_3_positions",
      "componentType": 5126,
      "count": 8454,
      "min": [
        -23.848100662231445,
        0.020122500136494637,
        -4.559879779815674
      ],
      "max": [
        23.767799377441406,
        50.02009963989258,
        6.525859832763672
      ],
      "type": "VEC3",
      "bufferView": 0,
      "byteOffset": 10008
    },
    {
      "name": "mesh_3_normals",
      "componentType": 5126,
      "count": 8454,
      "min": [
        -0.9999179840087891,
        -0.9994620084762573,
        -0.999925971031189
      ],
      "max": [
        0.9999110102653503,
        0.9991670250892639,
        1
      ],
      "type": "VEC3",
      "bufferView": 0,
      "byteOffset": 121464
    },
    {
      "name": "mesh_3_texcoords",
      "componentType": 5126,
      "count": 8454,
      "min": [
        0.0064666601829230785,
        1.0056166648864746
      ],
      "max": [
        0.9995189905166626,
        1.9967670440673828
      ],
      "type": "VEC2",
      "bufferView": 1,
      "byteOffset": 6672
    },
    {
      "name": "mesh_3_0_indices",
      "componentType": 5123,
      "count": 8454,
      "min": [
        0
      ],
      "max": [
        8453
      ],
      "type": "SCALAR",
      "bufferView": 2,
      "byteOffset": 1668
    }
  ],
  "asset": {
    "generator": "obj2gltf",
    "version": "2.0"
  },
  "buffers": [
    {
      "name": "GrandpaJoe",
      "byteLength": 379160,
      "uri": "data:application/octet-stream;base64,"
    }
  ],
  "bufferViews": [
    {
      "name": "bufferView_0",
      "buffer": 0,
      "byteLength": 222912,
      "byteOffset": 0,
      "byteStride": 12,
      "target": 34962
    },
    {
      "name": "bufferView_1",
      "buffer": 0,
      "byteLength": 74304,
      "byteOffset": 222912,
      "byteStride": 8,
      "target": 34962
    },
    {
      "name": "bufferView_2",
      "buffer": 0,
      "byteLength": 18576,
      "byteOffset": 297216,
      "target": 34963
    },
    {
      "buffer": 0,
      "byteOffset": 315792,
      "byteLength": 63368
    }
  ],
  "images": [
    {
      "name": "JoeA",
      "mimeType": "image/png",
      "bufferView": 3
    }
  ],
  "materials": [
    {
      "name": "material0",
      "pbrMetallicRoughness": {
        "baseColorTexture": {
          "index": 0
        },
        "baseColorFactor": [
          1,
          1,
          1,
          1
        ],
        "metallicFactor": 0,
        "roughnessFactor": 1
      },
      "emissiveFactor": [
        0,
        0,
        0
      ],
      "alphaMode": "OPAQUE",
      "doubleSided": false
    }
  ],
  "meshes": [
    {
      "name": "mesh_2",
      "primitives": [
        {
          "attributes": {
            "POSITION": 0,
            "NORMAL": 1,
            "TEXCOORD_0": 2
          },
          "indices": 3,
          "material": 0,
          "mode": 4
        }
      ]
    },
    {
      "name": "mesh_3",
      "primitives": [
        {
          "attributes": {
            "POSITION": 4,
            "NORMAL": 5,
            "TEXCOORD_0": 6
          },
          "indices": 7,
          "material": 0,
          "mode": 4
        }
      ]
    }
  ],
  "nodes": [
    {
      "name": "mesh",
      "mesh": 0
    },
    {
      "name": "mesh_1",
      "mesh": 1
    }
  ],
  "samplers": [
    {
      "magFilter": 9729,
      "minFilter": 9986,
      "wrapS": 10497,
      "wrapT": 10497
    }
  ],
  "scene": 0,
  "scenes": [
    {
      "nodes": [
        0,
        1
      ]
    }
  ],
  "textures": [
    {
      "name": "JoeA",
      "sampler": 0,
      "source": 0
    }
  ]
}
