{"accessors":[{"name":"Hulk_Hulk_HulkBody_Hulk_body_diff.tga_1_positions","componentType":5126,"count":2765,"min":[-1.7440890073776245,0,-0.6394490003585815],"max":[1.7727500200271606,4.331293106079102,1.6582289934158325],"type":"VEC3","bufferView":0,"byteOffset":0},{"name":"Hulk_Hulk_HulkBody_Hulk_body_diff.tga_1_normals","componentType":5126,"count":2765,"min":[-0.9980109930038452,-0.998216986656189,-0.9983000159263611],"max":[0.9980090260505676,0.9982600212097168,0.9983090162277222],"type":"VEC3","bufferView":0,"byteOffset":35088},{"name":"Hulk_Hulk_HulkBody_Hulk_body_diff.tga_1_texcoords","componentType":5126,"count":2765,"min":[0.002300000051036477,0.0017000000225380063],"max":[0.998199999332428,0.998199999332428],"type":"VEC2","bufferView":1,"byteOffset":0},{"name":"Hulk_Hulk_HulkBody_Hulk_body_diff.tga_1_0_indices","componentType":5123,"count":13128,"min":[0],"max":[2764],"type":"SCALAR","bufferView":2,"byteOffset":0},{"name":"Hulk_Hulk_HulkHair_Hulk_hair_diff.tga_1_positions","componentType":5126,"count":159,"min":[-0.2682810127735138,3.9805688858032227,0.20659199357032776],"max":[0.27590298652648926,4.380258083343506,0.914946973323822],"type":"VEC3","bufferView":0,"byteOffset":33180},{"name":"Hulk_Hulk_HulkHair_Hulk_hair_diff.tga_1_normals","componentType":5126,"count":159,"min":[-0.9936850070953369,-0.07437299937009811,-0.6881510019302368],"max":[0.9932199716567993,0.9978160262107849,0.9976999759674072],"type":"VEC3","bufferView":0,"byteOffset":68268},{"name":"Hulk_Hulk_HulkHair_Hulk_hair_diff.tga_1_texcoords","componentType":5126,"count":159,"min":[-0.028699999675154686,0.004800000227987766],"max":[0.9922000169754028,1.0140000581741333],"type":"VEC2","bufferView":1,"byteOffset":22120},{"name":"Hulk_Hulk_HulkHair_Hulk_hair_diff.tga_1_0_indices","componentType":5123,"count":774,"min":[0],"max":[158],"type":"SCALAR","bufferView":2,"byteOffset":26256}],"asset":{"generator":"obj2gltf","version":"2.0"},"buffers":[{"name":"HULK","byteLength":482060,"uri":"data:application/octet-stream;base64,"}],"bufferViews":[{"name":"bufferView_0","buffer":0,"byteLength":70176,"byteOffset":0,"byteStride":12,"target":34962},{"name":"bufferView_1","buffer":0,"byteLength":23392,"byteOffset":70176,"byteStride":8,"target":34962},{"name":"bufferView_2","buffer":0,"byteLength":27804,"byteOffset":93568,"target":34963},{"buffer":0,"byteOffset":121372,"byteLength":338044},{"buffer":0,"byteOffset":459416,"byteLength":22643}],"images":[{"name":"Hulk_body_diff","mimeType":"image/png","bufferView":3},{"name":"Hulk_hair_diff","mimeType":"image/png","bufferView":4}],"materials":[{"name":"HulkBody_Hulk_body_diff.tga","pbrMetallicRoughness":{"baseColorTexture":{"index":0},"baseColorFactor":[1,1,1,1],"metallicFactor":0,"roughnessFactor":0.905882332},"emissiveFactor":[0,0,0],"alphaMode":"OPAQUE","doubleSided":false},{"name":"HulkHair_Hulk_hair_diff.tga","pbrMetallicRoughness":{"baseColorTexture":{"index":1},"baseColorFactor":[1,1,1,1],"metallicFactor":0,"roughnessFactor":0.905882332},"emissiveFactor":[0,0,0],"alphaMode":"OPAQUE","doubleSided":false}],"meshes":[{"name":"Hulk_Hulk_HulkBody_Hulk_body_diff.tga_1","primitives":[{"attributes":{"POSITION":0,"NORMAL":1,"TEXCOORD_0":2},"indices":3,"material":0,"mode":4}]},{"name":"Hulk_Hulk_HulkHair_Hulk_hair_diff.tga_1","primitives":[{"attributes":{"POSITION":4,"NORMAL":5,"TEXCOORD_0":6},"indices":7,"material":1,"mode":4}]}],"nodes":[{"name":"Hulk_Hulk_HulkBody_Hulk_body_diff.tga","mesh":0},{"name":"Hulk_Hulk_HulkHair_Hulk_hair_diff.tga","mesh":1}],"samplers":[{"magFilter":9729,"minFilter":9986,"wrapS":10497,"wrapT":10497}],"scene":0,"scenes":[{"nodes":[0,1]}],"textures":[{"name":"Hulk_body_diff","sampler":0,"source":0},{"name":"Hulk_hair_diff","sampler":0,"source":1}]}
