{
  "accessors": [
    {
      "name": "objMesh_1_positions",
      "componentType": 5126,
      "count": 5586,
      "min": [
        -7.219551086425781,
        0,
        -2.514601945877075
      ],
      "max": [
        7.22874116897583,
        35.6348991394043,
        3.8887240886688232
      ],
      "type": "VEC3",
      "bufferView": 0,
      "byteOffset": 0
    },
    {
      "name": "objMesh_1_normals",
      "componentType": 5126,
      "count": 5586,
      "min": [
        -0.9982159733772278,
        -0.9973250031471252,
        -0.9983059763908386
      ],
      "max": [
        0.9981120228767395,
        0.9974200129508972,
        0.9982860088348389
      ],
      "type": "VEC3",
      "bufferView": 0,
      "byteOffset": 67032
    },
    {
      "name": "objMesh_1_texcoords",
      "componentType": 5126,
      "count": 5586,
      "min": [
        0.00559200020506978,
        0.00597799988463521
      ],
      "max": [
        0.9936519861221313,
        0.9863240122795105
      ],
      "type": "VEC2",
      "bufferView": 1,
      "byteOffset": 0
    },
    {
      "name": "objMesh_1_0_indices",
      "componentType": 5123,
      "count": 25716,
      "min": [
        0
      ],
      "max": [
        5585
      ],
      "type": "SCALAR",
      "bufferView": 2,
      "byteOffset": 0
    }
  ],
  "asset": {
    "generator": "obj2gltf",
    "version": "2.0"
  },
  "buffers": [
    {
      "name": "WomanIndian.Kathia",
      "byteLength": 1778632,
      "uri": "data:application/octet-stream;base64,"
    }
  ],
  "bufferViews": [
    {
      "name": "bufferView_0",
      "buffer": 0,
      "byteLength": 134064,
      "byteOffset": 0,
      "byteStride": 12,
      "target": 34962
    },
    {
      "name": "bufferView_1",
      "buffer": 0,
      "byteLength": 44688,
      "byteOffset": 134064,
      "byteStride": 8,
      "target": 34962
    },
    {
      "name": "bufferView_2",
      "buffer": 0,
      "byteLength": 51432,
      "byteOffset": 178752,
      "target": 34963
    },
    {
      "buffer": 0,
      "byteOffset": 230184,
      "byteLength": 1548447
    }
  ],
  "images": [
    {
      "name": "Amazon_Generic_Female - Default Texture",
      "mimeType": "image/png",
      "bufferView": 3
    }
  ],
  "materials": [
    {
      "name": "Amazon_Generic_Female",
      "pbrMetallicRoughness": {
        "baseColorTexture": {
          "index": 0
        },
        "baseColorFactor": [
          1,
          1,
          1,
          1
        ],
        "metallicFactor": 0,
        "roughnessFactor": 0.993937133
      },
      "emissiveFactor": [
        0,
        0,
        0
      ],
      "alphaMode": "OPAQUE",
      "doubleSided": false
    }
  ],
  "meshes": [
    {
      "name": "objMesh_1",
      "primitives": [
        {
          "attributes": {
            "POSITION": 0,
            "NORMAL": 1,
            "TEXCOORD_0": 2
          },
          "indices": 3,
          "material": 0,
          "mode": 4
        }
      ]
    }
  ],
  "nodes": [
    {
      "name": "objMesh",
      "mesh": 0
    }
  ],
  "samplers": [
    {
      "magFilter": 9729,
      "minFilter": 9986,
      "wrapS": 10497,
      "wrapT": 10497
    }
  ],
  "scene": 0,
  "scenes": [
    {
      "nodes": [
        0
      ]
    }
  ],
  "textures": [
    {
      "name": "Amazon_Generic_Female - Default Texture",
      "sampler": 0,
      "source": 0
    }
  ]
}
