{
  "accessors": [
    {
      "name": "a_1_positions",
      "componentType": 5126,
      "count": 3533,
      "min": [
        -0.4196999967098236,
        0,
        -0.21490000188350677
      ],
      "max": [
        0.4196999967098236,
        1.8079999685287476,
        0.17110000550746918
      ],
      "type": "VEC3",
      "bufferView": 0,
      "byteOffset": 0
    },
    {
      "name": "a_1_normals",
      "componentType": 5126,
      "count": 3533,
      "min": [
        -0.9998000264167786,
        -1,
        -0.9983999729156494
      ],
      "max": [
        0.9998000264167786,
        0.9984999895095825,
        0.9998999834060669
      ],
      "type": "VEC3",
      "bufferView": 0,
      "byteOffset": 42396
    },
    {
      "name": "a_1_texcoords",
      "componentType": 5126,
      "count": 3533,
      "min": [
        -0.9940000176429749,
        0.00800000037997961
      ],
      "max": [
        0.9943000078201294,
        1.0020999908447266
      ],
      "type": "VEC2",
      "bufferView": 1,
      "byteOffset": 0
    },
    {
      "name": "a_1_0_indices",
      "componentType": 5123,
      "count": 14976,
      "min": [
        0
      ],
      "max": [
        3532
      ],
      "type": "SCALAR",
      "bufferView": 2,
      "byteOffset": 0
    }
  ],
  "asset": {
    "generator": "obj2gltf",
    "version": "2.0"
  },
  "buffers": [
    {
      "name": "Mark7",
      "byteLength": 1049364,
      "uri": "data:application/octet-stream;base64,"
    }
  ],
  "bufferViews": [
    {
      "name": "bufferView_0",
      "buffer": 0,
      "byteLength": 84792,
      "byteOffset": 0,
      "byteStride": 12,
      "target": 34962
    },
    {
      "name": "bufferView_1",
      "buffer": 0,
      "byteLength": 28264,
      "byteOffset": 84792,
      "byteStride": 8,
      "target": 34962
    },
    {
      "name": "bufferView_2",
      "buffer": 0,
      "byteLength": 29952,
      "byteOffset": 113056,
      "target": 34963
    },
    {
      "buffer": 0,
      "byteOffset": 143008,
      "byteLength": 906356
    }
  ],
  "images": [
    {
      "name": "mk7",
      "mimeType": "image/png",
      "bufferView": 3
    }
  ],
  "materials": [
    {
      "name": "Material__33",
      "pbrMetallicRoughness": {
        "baseColorTexture": {
          "index": 0
        },
        "baseColorFactor": [
          1,
          1,
          1,
          1
        ],
        "metallicFactor": 0,
        "roughnessFactor": 0.99
      },
      "occlusionTexture": {
        "index": 0
      },
      "emissiveFactor": [
        0,
        0,
        0
      ],
      "alphaMode": "OPAQUE",
      "doubleSided": false
    }
  ],
  "meshes": [
    {
      "name": "a_1",
      "primitives": [
        {
          "attributes": {
            "POSITION": 0,
            "NORMAL": 1,
            "TEXCOORD_0": 2
          },
          "indices": 3,
          "material": 0,
          "mode": 4
        }
      ]
    }
  ],
  "nodes": [
    {
      "name": "a",
      "mesh": 0
    }
  ],
  "samplers": [
    {
      "magFilter": 9729,
      "minFilter": 9986,
      "wrapS": 10497,
      "wrapT": 10497
    }
  ],
  "scene": 0,
  "scenes": [
    {
      "nodes": [
        0
      ]
    }
  ],
  "textures": [
    {
      "name": "mk7",
      "sampler": 0,
      "source": 0
    }
  ]
}
