{
  "accessors": [
    {
      "name": "Object.1-Mesh_positions",
      "componentType": 5126,
      "count": 58582,
      "min": [
        -27.83700180053711,
        -59.413978576660156,
        0
      ],
      "max": [
        27.837078094482422,
        59.41402816772461,
        141.440185546875
      ],
      "type": "VEC3",
      "bufferView": 0,
      "byteOffset": 0
    },
    {
      "name": "Object.1-Mesh_texcoords",
      "componentType": 5126,
      "count": 58582,
      "min": [
        -79.78972625732422,
        -78.7897720336914
      ],
      "max": [
        79.78990173339844,
        95.73124694824219
      ],
      "type": "VEC2",
      "bufferView": 1,
      "byteOffset": 0
    },
    {
      "name": "Object.1-Mesh_0_indices",
      "componentType": 5123,
      "count": 13932,
      "min": [
        0
      ],
      "max": [
        2987
      ],
      "type": "SCALAR",
      "bufferView": 2,
      "byteOffset": 0
    },
    {
      "name": "Object.1-Mesh_1_indices",
      "componentType": 5123,
      "count": 10542,
      "min": [
        2988
      ],
      "max": [
        5241
      ],
      "type": "SCALAR",
      "bufferView": 2,
      "byteOffset": 27864
    },
    {
      "name": "Object.1-Mesh_2_indices",
      "componentType": 5123,
      "count": 9318,
      "min": [
        5242
      ],
      "max": [
        7231
      ],
      "type": "SCALAR",
      "bufferView": 2,
      "byteOffset": 48948
    },
    {
      "name": "Object.1-Mesh_3_indices",
      "componentType": 5123,
      "count": 8232,
      "min": [
        7232
      ],
      "max": [
        15247
      ],
      "type": "SCALAR",
      "bufferView": 2,
      "byteOffset": 67584
    },
    {
      "name": "Object.1-Mesh_4_indices",
      "componentType": 5123,
      "count": 1344,
      "min": [
        15248
      ],
      "max": [
        15475
      ],
      "type": "SCALAR",
      "bufferView": 2,
      "byteOffset": 84048
    },
    {
      "name": "Object.1-Mesh_5_indices",
      "componentType": 5123,
      "count": 16068,
      "min": [
        15476
      ],
      "max": [
        18745
      ],
      "type": "SCALAR",
      "bufferView": 2,
      "byteOffset": 86736
    },
    {
      "name": "Object.1-Mesh_6_indices",
      "componentType": 5123,
      "count": 14364,
      "min": [
        18746
      ],
      "max": [
        25435
      ],
      "type": "SCALAR",
      "bufferView": 2,
      "byteOffset": 118872
    },
    {
      "name": "Object.1-Mesh_7_indices",
      "componentType": 5123,
      "count": 7200,
      "min": [
        25436
      ],
      "max": [
        29167
      ],
      "type": "SCALAR",
      "bufferView": 2,
      "byteOffset": 147600
    },
    {
      "name": "Object.1-Mesh_8_indices",
      "componentType": 5123,
      "count": 8646,
      "min": [
        29168
      ],
      "max": [
        37439
      ],
      "type": "SCALAR",
      "bufferView": 2,
      "byteOffset": 162000
    },
    {
      "name": "Object.1-Mesh_9_indices",
      "componentType": 5123,
      "count": 80760,
      "min": [
        37440
      ],
      "max": [
        52161
      ],
      "type": "SCALAR",
      "bufferView": 2,
      "byteOffset": 179292
    },
    {
      "name": "Object.1-Mesh_10_indices",
      "componentType": 5123,
      "count": 13524,
      "min": [
        52162
      ],
      "max": [
        58581
      ],
      "type": "SCALAR",
      "bufferView": 2,
      "byteOffset": 340812
    }
  ],
  "asset": {
    "generator": "obj2gltf",
    "version": "2.0"
  },
  "buffers": [
    {
      "name": "kangaroo2",
      "byteLength": 2159812,
      "uri": "data:application/octet-stream;base64,"
    }
  ],
  "bufferViews": [
    {
      "name": "bufferView_0",
      "buffer": 0,
      "byteLength": 702984,
      "byteOffset": 0,
      "byteStride": 12,
      "target": 34962
    },
    {
      "name": "bufferView_1",
      "buffer": 0,
      "byteLength": 468656,
      "byteOffset": 702984,
      "byteStride": 8,
      "target": 34962
    },
    {
      "name": "bufferView_2",
      "buffer": 0,
      "byteLength": 367860,
      "byteOffset": 1171640,
      "target": 34963
    },
    {
      "buffer": 0,
      "byteOffset": 1539500,
      "byteLength": 120840
    },
    {
      "buffer": 0,
      "byteOffset": 1660340,
      "byteLength": 76870
    },
    {
      "buffer": 0,
      "byteOffset": 1737210,
      "byteLength": 61402
    },
    {
      "buffer": 0,
      "byteOffset": 1798612,
      "byteLength": 5888
    },
    {
      "buffer": 0,
      "byteOffset": 1804500,
      "byteLength": 90668
    },
    {
      "buffer": 0,
      "byteOffset": 1895168,
      "byteLength": 6119
    },
    {
      "buffer": 0,
      "byteOffset": 1901287,
      "byteLength": 111250
    },
    {
      "buffer": 0,
      "byteOffset": 2012537,
      "byteLength": 147275
    }
  ],
  "images": [
    {
      "name": "KGROSUP",
      "mimeType": "image/jpeg",
      "bufferView": 3
    },
    {
      "name": "KGROBACK",
      "mimeType": "image/jpeg",
      "bufferView": 4
    },
    {
      "name": "KGROBTM",
      "mimeType": "image/jpeg",
      "bufferView": 5
    },
    {
      "name": "KGROEAR",
      "mimeType": "image/jpeg",
      "bufferView": 6
    },
    {
      "name": "KGROFRT",
      "mimeType": "image/jpeg",
      "bufferView": 7
    },
    {
      "name": "KGROHAIR",
      "mimeType": "image/jpeg",
      "bufferView": 8
    },
    {
      "name": "KGROINT",
      "mimeType": "image/jpeg",
      "bufferView": 9
    },
    {
      "name": "KGROLAT",
      "mimeType": "image/jpeg",
      "bufferView": 10
    }
  ],
  "materials": [
    {
      "name": "KGROsup",
      "pbrMetallicRoughness": {
        "baseColorTexture": {
          "index": 0
        },
        "baseColorFactor": [
          1,
          1,
          1,
          1
        ],
        "metallicFactor": 0,
        "roughnessFactor": 1
      },
      "emissiveFactor": [
        0,
        0,
        0
      ],
      "alphaMode": "OPAQUE",
      "doubleSided": false
    },
    {
      "name": "KGROback",
      "pbrMetallicRoughness": {
        "baseColorTexture": {
          "index": 1
        },
        "baseColorFactor": [
          1,
          1,
          1,
          1
        ],
        "metallicFactor": 0,
        "roughnessFactor": 1
      },
      "emissiveFactor": [
        0,
        0,
        0
      ],
      "alphaMode": "OPAQUE",
      "doubleSided": false
    },
    {
      "name": "KGRObttm",
      "pbrMetallicRoughness": {
        "baseColorTexture": {
          "index": 2
        },
        "baseColorFactor": [
          1,
          1,
          1,
          1
        ],
        "metallicFactor": 0,
        "roughnessFactor": 1
      },
      "emissiveFactor": [
        0,
        0,
        0
      ],
      "alphaMode": "OPAQUE",
      "doubleSided": false
    },
    {
      "name": "KGROear",
      "pbrMetallicRoughness": {
        "baseColorTexture": {
          "index": 3
        },
        "baseColorFactor": [
          1,
          1,
          1,
          1
        ],
        "metallicFactor": 0,
        "roughnessFactor": 1
      },
      "emissiveFactor": [
        0,
        0,
        0
      ],
      "alphaMode": "OPAQUE",
      "doubleSided": false
    },
    {
      "name": "KGROeyes",
      "pbrMetallicRoughness": {
        "baseColorFactor": [
          0.119216,
          0.053333,
          0.021961,
          1
        ],
        "metallicFactor": 0,
        "roughnessFactor": 1
      },
      "emissiveFactor": [
        0,
        0,
        0
      ],
      "alphaMode": "OPAQUE",
      "doubleSided": false
    },
    {
      "name": "KGROfrt",
      "pbrMetallicRoughness": {
        "baseColorTexture": {
          "index": 4
        },
        "baseColorFactor": [
          1,
          1,
          1,
          1
        ],
        "metallicFactor": 0,
        "roughnessFactor": 1
      },
      "emissiveFactor": [
        0,
        0,
        0
      ],
      "alphaMode": "OPAQUE",
      "doubleSided": false
    },
    {
      "name": "KGROhr01",
      "pbrMetallicRoughness": {
        "baseColorTexture": {
          "index": 5
        },
        "baseColorFactor": [
          1,
          1,
          1,
          1
        ],
        "metallicFactor": 0,
        "roughnessFactor": 1
      },
      "emissiveFactor": [
        0,
        0,
        0
      ],
      "alphaMode": "OPAQUE",
      "doubleSided": false
    },
    {
      "name": "KGROhr02",
      "pbrMetallicRoughness": {
        "baseColorFactor": [
          0.555294,
          0.483137,
          0.404706,
          1
        ],
        "metallicFactor": 0,
        "roughnessFactor": 1
      },
      "emissiveFactor": [
        0,
        0,
        0
      ],
      "alphaMode": "OPAQUE",
      "doubleSided": false
    },
    {
      "name": "KGROintr",
      "pbrMetallicRoughness": {
        "baseColorTexture": {
          "index": 6
        },
        "baseColorFactor": [
          1,
          1,
          1,
          1
        ],
        "metallicFactor": 0,
        "roughnessFactor": 1
      },
      "emissiveFactor": [
        0,
        0,
        0
      ],
      "alphaMode": "OPAQUE",
      "doubleSided": false
    },
    {
      "name": "KGROmain",
      "pbrMetallicRoughness": {
        "baseColorTexture": {
          "index": 7
        },
        "baseColorFactor": [
          1,
          1,
          1,
          1
        ],
        "metallicFactor": 0,
        "roughnessFactor": 1
      },
      "emissiveFactor": [
        0,
        0,
        0
      ],
      "alphaMode": "OPAQUE",
      "doubleSided": false
    },
    {
      "name": "KGROnail",
      "pbrMetallicRoughness": {
        "baseColorFactor": [
          0.693333,
          0.693333,
          0.693333,
          1
        ],
        "metallicFactor": 0,
        "roughnessFactor": 1
      },
      "emissiveFactor": [
        0,
        0,
        0
      ],
      "alphaMode": "OPAQUE",
      "doubleSided": false
    }
  ],
  "meshes": [
    {
      "name": "Object.1-Mesh",
      "primitives": [
        {
          "attributes": {
            "POSITION": 0,
            "TEXCOORD_0": 1
          },
          "indices": 2,
          "material": 0,
          "mode": 4
        },
        {
          "attributes": {
            "POSITION": 0,
            "TEXCOORD_0": 1
          },
          "indices": 3,
          "material": 1,
          "mode": 4
        },
        {
          "attributes": {
            "POSITION": 0,
            "TEXCOORD_0": 1
          },
          "indices": 4,
          "material": 2,
          "mode": 4
        },
        {
          "attributes": {
            "POSITION": 0,
            "TEXCOORD_0": 1
          },
          "indices": 5,
          "material": 3,
          "mode": 4
        },
        {
          "attributes": {
            "POSITION": 0,
            "TEXCOORD_0": 1
          },
          "indices": 6,
          "material": 4,
          "mode": 4
        },
        {
          "attributes": {
            "POSITION": 0,
            "TEXCOORD_0": 1
          },
          "indices": 7,
          "material": 5,
          "mode": 4
        },
        {
          "attributes": {
            "POSITION": 0,
            "TEXCOORD_0": 1
          },
          "indices": 8,
          "material": 6,
          "mode": 4
        },
        {
          "attributes": {
            "POSITION": 0,
            "TEXCOORD_0": 1
          },
          "indices": 9,
          "material": 7,
          "mode": 4
        },
        {
          "attributes": {
            "POSITION": 0,
            "TEXCOORD_0": 1
          },
          "indices": 10,
          "material": 8,
          "mode": 4
        },
        {
          "attributes": {
            "POSITION": 0,
            "TEXCOORD_0": 1
          },
          "indices": 11,
          "material": 9,
          "mode": 4
        },
        {
          "attributes": {
            "POSITION": 0,
            "TEXCOORD_0": 1
          },
          "indices": 12,
          "material": 10,
          "mode": 4
        }
      ]
    }
  ],
  "nodes": [
    {
      "name": "Object.1",
      "mesh": 0
    }
  ],
  "samplers": [
    {
      "magFilter": 9729,
      "minFilter": 9986,
      "wrapS": 10497,
      "wrapT": 10497
    }
  ],
  "scene": 0,
  "scenes": [
    {
      "nodes": [
        0
      ]
    }
  ],
  "textures": [
    {
      "name": "KGROSUP",
      "sampler": 0,
      "source": 0
    },
    {
      "name": "KGROBACK",
      "sampler": 0,
      "source": 1
    },
    {
      "name": "KGROBTM",
      "sampler": 0,
      "source": 2
    },
    {
      "name": "KGROEAR",
      "sampler": 0,
      "source": 3
    },
    {
      "name": "KGROFRT",
      "sampler": 0,
      "source": 4
    },
    {
      "name": "KGROHAIR",
      "sampler": 0,
      "source": 5
    },
    {
      "name": "KGROINT",
      "sampler": 0,
      "source": 6
    },
    {
      "name": "KGROLAT",
      "sampler": 0,
      "source": 7
    }
  ]
}
