{"accessors":[{"name":"mmGroup1_1_positions","componentType":5126,"count":7530,"min":[-34.81553649902344,-0.000004999999873689376,-173.7451171875],"max":[35.80597686767578,189.0332794189453,112.02141571044922],"type":"VEC3","bufferView":0,"byteOffset":0},{"name":"mmGroup1_1_normals","componentType":5126,"count":7530,"min":[-0.9981420040130615,-0.9971209764480591,-0.9823150038719177],"max":[0.9982640147209167,0.9972109794616699,0.9934920072555542],"type":"VEC3","bufferView":0,"byteOffset":90360},{"name":"mmGroup1_1_texcoords","componentType":5126,"count":7530,"min":[0.001765000051818788,0.0019920000340789557],"max":[0.8842340111732483,0.9980080127716064],"type":"VEC2","bufferView":1,"byteOffset":0},{"name":"mmGroup1_1_0_indices","componentType":5123,"count":7476,"min":[0],"max":[7475],"type":"SCALAR","bufferView":2,"byteOffset":0},{"name":"mmGroup1_1_1_indices","componentType":5123,"count":54,"min":[7476],"max":[7529],"type":"SCALAR","bufferView":2,"byteOffset":14952}],"asset":{"generator":"obj2gltf","version":"2.0"},"buffers":[{"name":"kangaroo_low_colors","byteLength":979944,"uri":"data:application/octet-stream;base64,"}],"bufferViews":[{"name":"bufferView_0","buffer":0,"byteLength":180720,"byteOffset":0,"byteStride":12,"target":34962},{"name":"bufferView_1","buffer":0,"byteLength":60240,"byteOffset":180720,"byteStride":8,"target":34962},{"name":"bufferView_2","buffer":0,"byteLength":15060,"byteOffset":240960,"target":34963},{"buffer":0,"byteOffset":256020,"byteLength":712424},{"buffer":0,"byteOffset":968444,"byteLength":11498}],"images":[{"name":"lambert2SG - Default Texture","mimeType":"image/png","bufferView":3},{"name":"lambert4SG - Default Texture","mimeType":"image/png","bufferView":4}],"materials":[{"name":"lambert2SG","pbrMetallicRoughness":{"baseColorTexture":{"index":0},"baseColorFactor":[1,1,1,1],"metallicFactor":0,"roughnessFactor":0.993937133},"emissiveFactor":[0,0,0],"alphaMode":"OPAQUE","doubleSided":false},{"name":"lambert4SG","pbrMetallicRoughness":{"baseColorTexture":{"index":1},"baseColorFactor":[1,1,1,1],"metallicFactor":0,"roughnessFactor":0.993937133},"emissiveFactor":[0,0,0],"alphaMode":"OPAQUE","doubleSided":false}],"meshes":[{"name":"mmGroup1_1","primitives":[{"attributes":{"POSITION":0,"NORMAL":1,"TEXCOORD_0":2},"indices":3,"material":0,"mode":4},{"attributes":{"POSITION":0,"NORMAL":1,"TEXCOORD_0":2},"indices":4,"material":1,"mode":4}]}],"nodes":[{"name":"mmGroup1","mesh":0}],"samplers":[{"magFilter":9729,"minFilter":9986,"wrapS":10497,"wrapT":10497}],"scene":0,"scenes":[{"nodes":[0]}],"textures":[{"name":"lambert2SG - Default Texture","sampler":0,"source":0},{"name":"lambert4SG - Default Texture","sampler":0,"source":1}]}
