{"accessors":[{"name":"Node-Mesh_positions","componentType":5126,"count":61644,"min":[-0.9643048644065857,-0.512407124042511,-0.34219101071357727],"max":[0.9042071104049683,0.5283039808273315,0.34219101071357727],"type":"VEC3","bufferView":0,"byteOffset":0},{"name":"Node-Mesh_normals","componentType":5126,"count":61644,"min":[-1,-1,-1],"max":[1,1,1],"type":"VEC3","bufferView":0,"byteOffset":739728},{"name":"Node-Mesh_texcoords","componentType":5126,"count":61644,"min":[0.008654500357806683,0.2390437126159668],"max":[0.9521035552024841,0.7583335041999817],"type":"VEC2","bufferView":1,"byteOffset":0},{"name":"Node-Mesh_0_indices","componentType":5123,"count":61644,"min":[0],"max":[61643],"type":"SCALAR","bufferView":2,"byteOffset":0}],"asset":{"generator":"obj2gltf","version":"2.0"},"buffers":[{"name":"model","byteLength":2770744,"uri":"data:application/octet-stream;base64,"}],"bufferViews":[{"name":"bufferView_0","buffer":0,"byteLength":1479456,"byteOffset":0,"byteStride":12,"target":34962},{"name":"bufferView_1","buffer":0,"byteLength":493152,"byteOffset":1479456,"byteStride":8,"target":34962},{"name":"bufferView_2","buffer":0,"byteLength":123288,"byteOffset":1972608,"target":34963},{"buffer":0,"byteOffset":2095896,"byteLength":674845}],"images":[{"name":"texture","mimeType":"image/jpeg","bufferView":3}],"materials":[{"name":"Textured","pbrMetallicRoughness":{"baseColorTexture":{"index":0},"baseColorFactor":[1,1,1,1],"metallicFactor":0,"roughnessFactor":1},"emissiveFactor":[0,0,0],"alphaMode":"OPAQUE","doubleSided":false}],"meshes":[{"name":"Node-Mesh","primitives":[{"attributes":{"POSITION":0,"NORMAL":1,"TEXCOORD_0":2},"indices":3,"material":0,"mode":4}]}],"nodes":[{"name":"Node","mesh":0}],"samplers":[{"magFilter":9729,"minFilter":9986,"wrapS":10497,"wrapT":10497}],"scene":0,"scenes":[{"nodes":[0]}],"textures":[{"name":"texture","sampler":0,"source":0}]}
