{
  "accessors": [
    {
      "name": "Node-Mesh_positions",
      "componentType": 5126,
      "count": 6398,
      "min": [
        -0.7381049990653992,
        -0.005543000064790249,
        -0.16356199979782104
      ],
      "max": [
        0.7381049990653992,
        1.764312982559204,
        0.17834800481796265
      ],
      "type": "VEC3",
      "bufferView": 0,
      "byteOffset": 0
    },
    {
      "name": "Node-Mesh_texcoords",
      "componentType": 5126,
      "count": 6398,
      "min": [
        0.008647999726235867,
        0.0034630000591278076
      ],
      "max": [
        0.989205002784729,
        0.999006986618042
      ],
      "type": "VEC2",
      "bufferView": 1,
      "byteOffset": 0
    },
    {
      "name": "Node-Mesh_0_indices",
      "componentType": 5123,
      "count": 31044,
      "min": [
        0
      ],
      "max": [
        6397
      ],
      "type": "SCALAR",
      "bufferView": 2,
      "byteOffset": 0
    }
  ],
  "asset": {
    "generator": "obj2gltf",
    "version": "2.0"
  },
  "buffers": [
    {
      "name": "M-CoC_iOS_HERO_Peter_Parker_Spider-Man_Stark_Enhanced",
      "byteLength": 635964,
      "uri": "data:application/octet-stream;base64,"
    }
  ],
  "bufferViews": [
    {
      "name": "bufferView_0",
      "buffer": 0,
      "byteLength": 76776,
      "byteOffset": 0,
      "byteStride": 12,
      "target": 34962
    },
    {
      "name": "bufferView_1",
      "buffer": 0,
      "byteLength": 51184,
      "byteOffset": 76776,
      "byteStride": 8,
      "target": 34962
    },
    {
      "name": "bufferView_2",
      "buffer": 0,
      "byteLength": 62088,
      "byteOffset": 127960,
      "target": 34963
    },
    {
      "buffer": 0,
      "byteOffset": 190048,
      "byteLength": 445914
    }
  ],
  "images": [
    {
      "name": "M-CoC_iOS_HERO_Peter_Parker_Spider-Man_Stark_Enhanced_Body_D",
      "mimeType": "image/png",
      "bufferView": 3
    }
  ],
  "materials": [
    {
      "name": "CoC_iOS_HER_PPA_SEN_B",
      "pbrMetallicRoughness": {
        "baseColorTexture": {
          "index": 0
        },
        "baseColorFactor": [
          1,
          1,
          1,
          1
        ],
        "metallicFactor": 0,
        "roughnessFactor": 0.903921569
      },
      "emissiveFactor": [
        0,
        0,
        0
      ],
      "alphaMode": "OPAQUE",
      "doubleSided": false
    }
  ],
  "meshes": [
    {
      "name": "Node-Mesh",
      "primitives": [
        {
          "attributes": {
            "POSITION": 0,
            "TEXCOORD_0": 1
          },
          "indices": 2,
          "material": 0,
          "mode": 4
        }
      ]
    }
  ],
  "nodes": [
    {
      "name": "Node",
      "mesh": 0
    }
  ],
  "samplers": [
    {
      "magFilter": 9729,
      "minFilter": 9986,
      "wrapS": 10497,
      "wrapT": 10497
    }
  ],
  "scene": 0,
  "scenes": [
    {
      "nodes": [
        0
      ]
    }
  ],
  "textures": [
    {
      "name": "M-CoC_iOS_HERO_Peter_Parker_Spider-Man_Stark_Enhanced_Body_D",
      "sampler": 0,
      "source": 0
    }
  ]
}
