{
  "accessors": [
    {
      "name": "tree-Mesh_positions",
      "componentType": 5126,
      "count": 32312,
      "min": [
        -2.913347005844116,
        0,
        -2.9490840435028076
      ],
      "max": [
        2.4933109283447266,
        6.484394073486328,
        2.5182220935821533
      ],
      "type": "VEC3",
      "bufferView": 0,
      "byteOffset": 0
    },
    {
      "name": "tree-Mesh_normals",
      "componentType": 5126,
      "count": 32312,
      "min": [
        -1,
        -0.9994999766349792,
        -1
      ],
      "max": [
        1,
        0.9998000264167786,
        1
      ],
      "type": "VEC3",
      "bufferView": 0,
      "byteOffset": 739080
    },
    {
      "name": "tree-Mesh_texcoords",
      "componentType": 5126,
      "count": 32312,
      "min": [
        0,
        0
      ],
      "max": [
        1,
        1
      ],
      "type": "VEC2",
      "bufferView": 1,
      "byteOffset": 0
    },
    {
      "name": "tree-Mesh_0_indices",
      "componentType": 5123,
      "count": 159408,
      "min": [
        0
      ],
      "max": [
        32311
      ],
      "type": "SCALAR",
      "bufferView": 2,
      "byteOffset": 0
    },
    {
      "name": "leaves-Mesh_positions",
      "componentType": 5126,
      "count": 29278,
      "min": [
        -3.1500940322875977,
        0.7873389720916748,
        -3.197077989578247
      ],
      "max": [
        2.6344621181488037,
        6.822361946105957,
        2.848778009414673
      ],
      "type": "VEC3",
      "bufferView": 0,
      "byteOffset": 387744
    },
    {
      "name": "leaves-Mesh_normals",
      "componentType": 5126,
      "count": 29278,
      "min": [
        -0.9987999796867371,
        -0.703499972820282,
        -0.9988999962806702
      ],
      "max": [
        0.9983999729156494,
        0.9998999834060669,
        0.9994999766349792
      ],
      "type": "VEC3",
      "bufferView": 0,
      "byteOffset": 1126824
    },
    {
      "name": "leaves-Mesh_texcoords",
      "componentType": 5126,
      "count": 29278,
      "min": [
        0.4000000059604645,
        0
      ],
      "max": [
        0.6000000238418579,
        1
      ],
      "type": "VEC2",
      "bufferView": 1,
      "byteOffset": 258496
    },
    {
      "name": "leaves-Mesh_0_indices",
      "componentType": 5123,
      "count": 57528,
      "min": [
        0
      ],
      "max": [
        29277
      ],
      "type": "SCALAR",
      "bufferView": 2,
      "byteOffset": 318816
    }
  ],
  "asset": {
    "generator": "obj2gltf",
    "version": "2.0"
  },
  "buffers": [
    {
      "name": "tree",
      "byteLength": 2404752,
      "uri": "data:application/octet-stream;base64,"
    }
  ],
  "bufferViews": [
    {
      "name": "bufferView_0",
      "buffer": 0,
      "byteLength": 1478160,
      "byteOffset": 0,
      "byteStride": 12,
      "target": 34962
    },
    {
      "name": "bufferView_1",
      "buffer": 0,
      "byteLength": 492720,
      "byteOffset": 1478160,
      "byteStride": 8,
      "target": 34962
    },
    {
      "name": "bufferView_2",
      "buffer": 0,
      "byteLength": 433872,
      "byteOffset": 1970880,
      "target": 34963
    }
  ],
  "materials": [
    {
      "name": "trunk",
      "pbrMetallicRoughness": {
        "baseColorFactor": [
          0.267458,
          0.107921,
          0.020234,
          1
        ],
        "metallicFactor": 0,
        "roughnessFactor": 0.903921569
      },
      "emissiveFactor": [
        0,
        0,
        0
      ],
      "alphaMode": "OPAQUE",
      "doubleSided": false
    },
    {
      "name": "leaf",
      "pbrMetallicRoughness": {
        "baseColorFactor": [
          0.137287,
          0.242558,
          0.008617,
          1
        ],
        "metallicFactor": 0,
        "roughnessFactor": 0.903921569
      },
      "emissiveFactor": [
        0,
        0,
        0
      ],
      "alphaMode": "OPAQUE",
      "doubleSided": false
    }
  ],
  "meshes": [
    {
      "name": "tree-Mesh",
      "primitives": [
        {
          "attributes": {
            "POSITION": 0,
            "NORMAL": 1,
            "TEXCOORD_0": 2
          },
          "indices": 3,
          "material": 0,
          "mode": 4
        }
      ]
    },
    {
      "name": "leaves-Mesh",
      "primitives": [
        {
          "attributes": {
            "POSITION": 4,
            "NORMAL": 5,
            "TEXCOORD_0": 6
          },
          "indices": 7,
          "material": 1,
          "mode": 4
        }
      ]
    }
  ],
  "nodes": [
    {
      "name": "tree",
      "mesh": 0
    },
    {
      "name": "leaves",
      "mesh": 1
    }
  ],
  "scene": 0,
  "scenes": [
    {
      "nodes": [
        0,
        1
      ]
    }
  ]
}
