{
  "accessors": [
    {
      "bufferView": 2,
      "componentType": 5126,
      "count": 2437,
      "max": [
        0.83939999341964722,
        0.38600000739097595,
        1.8079999685287476
      ],
      "min": [
        0,
        0,
        0
      ],
      "type": "VEC3"
    },
    {
      "bufferView": 2,
      "byteOffset": 29244,
      "componentType": 5126,
      "count": 2437,
      "max": [
        0.99983972311019897,
        0.99844235181808472,
        0.99845129251480103
      ],
      "min": [
        -0.99983972311019897,
        -0.99990415573120117,
        -1
      ],
      "type": "VEC3"
    },
    {
      "bufferView": 1,
      "componentType": 5126,
      "count": 2437,
      "max": [
        0.99430000782012939,
        0.98640000820159912
      ],
      "min": [
        -0.99400001764297485,
        -0.002099999925121665
      ],
      "type": "VEC2"
    },
    {
      "bufferView": 3,
      "componentType": 5126,
      "count": 2437,
      "max": [
        0.99936705827713013,
        0.99934083223342896,
        0.99525833129882812,
        1
      ],
      "min": [
        -0.99992918968200684,
        -0.99981504678726196,
        -0.99561351537704468,
        -1
      ],
      "type": "VEC4"
    },
    {
      "bufferView": 0,
      "componentType": 5125,
      "count": 9999,
      "max": [
        2436
      ],
      "min": [
        0
      ],
      "type": "SCALAR"
    },
    {
      "bufferView": 2,
      "byteOffset": 58488,
      "componentType": 5126,
      "count": 1352,
      "max": [
        0.82850003242492676,
        0.37239998579025269,
        1.5799000263214111
      ],
      "min": [
        0,
        0.082800008356571198,
        0.82050001621246338
      ],
      "type": "VEC3"
    },
    {
      "bufferView": 2,
      "byteOffset": 74712,
      "componentType": 5126,
      "count": 1352,
      "max": [
        0.999592125415802,
        0.99770736694335938,
        0.99845129251480103
      ],
      "min": [
        -0.99876594543457031,
        -0.99882793426513672,
        -0.99908965826034546
      ],
      "type": "VEC3"
    },
    {
      "bufferView": 1,
      "byteOffset": 19496,
      "componentType": 5126,
      "count": 1352,
      "max": [
        0.9934999942779541,
        0.99199998378753662
      ],
      "min": [
        0.01269999984651804,
        -0.002099999925121665
      ],
      "type": "VEC2"
    },
    {
      "bufferView": 3,
      "byteOffset": 38992,
      "componentType": 5126,
      "count": 1352,
      "max": [
        0.99961042404174805,
        0.99875485897064209,
        0.99535679817199707,
        1
      ],
      "min": [
        -0.99961036443710327,
        -0.9996720552444458,
        -0.99555987119674683,
        -1
      ],
      "type": "VEC4"
    },
    {
      "bufferView": 0,
      "byteOffset": 39996,
      "componentType": 5125,
      "count": 4977,
      "max": [
        1351
      ],
      "min": [
        0
      ],
      "type": "SCALAR"
    }
  ],
  "asset": {
    "generator": "Sketchfab (OSG glTF plugin)",
    "version": "2.0"
  },
  "bufferViews": [
    {
      "buffer": 0,
      "byteLength": 59904,
      "byteOffset": 0,
      "name": "ScalarBufferView",
      "target": 34963
    },
    {
      "buffer": 0,
      "byteLength": 30312,
      "byteOffset": 59904,
      "byteStride": 8,
      "name": "Vec3BufferView",
      "target": 34962
    },
    {
      "buffer": 0,
      "byteLength": 90936,
      "byteOffset": 90216,
      "byteStride": 12,
      "name": "Vec4BufferView",
      "target": 34962
    },
    {
      "buffer": 0,
      "byteLength": 60624,
      "byteOffset": 181152,
      "byteStride": 16,
      "name": "MatrixBufferView",
      "target": 34962
    }
  ],
  "buffers": [
    {
      "byteLength": 241776,
      "uri": "scene.bin"
    }
  ],
  "images": [
    {
      "uri": "textures/Material__33_baseColor.png"
    },
    {
      "uri": "textures/Material__33_emissive.png"
    }
  ],
  "materials": [
    {
      "doubleSided": true,
      "emissiveFactor": [
        0,
        0,
        0
      ],
      "emissiveTexture": {
        "index": 1,
        "texCoord": 0
      },
      "name": "Material__33",
      "pbrMetallicRoughness": {
        "baseColorFactor": [
          1,
          1,
          1,
          1
        ],
        "baseColorTexture": {
          "index": 0,
          "texCoord": 0
        },
        "metallicFactor": 0,
        "roughnessFactor": 0.59999999999999998
      }
    }
  ],
  "meshes": [
    {
      "name": "a",
      "primitives": [
        {
          "attributes": {
            "NORMAL": 1,
            "POSITION": 0,
            "TANGENT": 3,
            "TEXCOORD_0": 2
          },
          "indices": 4,
          "material": 0,
          "mode": 4
        },
        {
          "attributes": {
            "NORMAL": 6,
            "POSITION": 5,
            "TANGENT": 8,
            "TEXCOORD_0": 7
          },
          "indices": 9,
          "material": 0,
          "mode": 4
        }
      ]
    }
  ],
  "nodes": [
    {
      "children": [
        1
      ],
      "name": "RootNode (gltf orientation matrix)",
      "rotation": [
        -0.70710678118654746,
        -0,
        -0,
        0.70710678118654757
      ]
    },
    {
      "children": [
        2
      ],
      "name": "RootNode (model correction matrix)"
    },
    {
      "children": [
        3
      ],
      "matrix": [
        1,
        0,
        0,
        0,
        0,
        1,
        0,
        0,
        0,
        0,
        1,
        0,
        -0.41969999670982361,
        -0.17110000550746918,
        0,
        1
      ],
      "name": "Mark 7.obj.cleaner.gles"
    },
    {
      "children": [
        4
      ],
      "name": ""
    },
    {
      "mesh": 0,
      "name": "a"
    }
  ],
  "samplers": [
    {
      "magFilter": 9729,
      "minFilter": 9987,
      "wrapS": 10497,
      "wrapT": 10497
    }
  ],
  "scene": 0,
  "scenes": [
    {
      "name": "OSG_Scene",
      "nodes": [
        0
      ]
    }
  ],
  "textures": [
    {
      "sampler": 0,
      "source": 0
    },
    {
      "sampler": 0,
      "source": 1
    }
  ]
}

